<svg width="470" height="408" viewBox="0 0 470 408" fill="none" xmlns="http://www.w3.org/2000/svg">
<circle cx="254.5" cy="223.5" r="175.5" fill="#ECF6EF"/>
<circle cx="89.9998" cy="105" r="11" fill="#ECF6EF"/>
<circle cx="374.5" cy="61.5" r="20.5" fill="#ECF6EF"/>
<circle cx="93.4998" cy="336.5" r="19.5" fill="#ECF6EF"/>
<circle cx="442.5" cy="317.5" r="19.5" fill="#ECF6EF"/>
<circle cx="404.5" cy="339.5" r="9.5" fill="#ECF6EF"/>
<path d="M278.525 14.537C277.945 14.4137 277.945 13.5863 278.525 13.463L287.291 11.5989C287.502 11.554 287.667 11.3894 287.713 11.1783L289.6 2.47438C289.726 1.89748 290.548 1.89748 290.674 2.47438L292.561 11.1783C292.607 11.3894 292.772 11.554 292.983 11.5989L301.749 13.463C302.329 13.5863 302.329 14.4137 301.749 14.537L292.983 16.4011C292.772 16.446 292.607 16.6106 292.561 16.8217L290.674 25.5256C290.548 26.1025 289.726 26.1025 289.6 25.5256L287.713 16.8217C287.667 16.6106 287.502 16.446 287.291 16.4011L278.525 14.537Z" fill="#8ECEA3"/>
<path d="M307.223 360.622C307.447 359.565 308.956 359.565 309.18 360.622L312.523 376.415C312.604 376.799 312.904 377.101 313.288 377.185L328.918 380.589C329.967 380.818 329.967 382.315 328.918 382.544L313.288 385.948C312.904 386.032 312.604 386.334 312.523 386.718L309.18 402.511C308.956 403.568 307.447 403.568 307.223 402.511L303.88 386.718C303.799 386.334 303.499 386.032 303.115 385.948L287.485 382.544C286.436 382.315 286.436 380.818 287.485 380.589L303.115 377.185C303.499 377.101 303.799 376.799 303.88 376.415L307.223 360.622Z" fill="#8ECEA3"/>
<path d="M441.344 102.622C441.568 101.565 443.077 101.565 443.301 102.622L445.251 111.835C445.333 112.22 445.632 112.521 446.017 112.605L455.161 114.597C456.21 114.826 456.21 116.323 455.161 116.551L446.017 118.543C445.632 118.627 445.333 118.928 445.251 119.313L443.301 128.526C443.077 129.583 441.568 129.583 441.344 128.526L439.394 119.313C439.313 118.928 439.013 118.627 438.629 118.543L429.485 116.551C428.435 116.323 428.435 114.826 429.485 114.597L438.629 112.605C439.013 112.521 439.313 112.22 439.394 111.835L441.344 102.622Z" fill="#8ECEA3"/>
<path d="M451.658 257.331L454.721 271.798L468.981 274.905L454.721 278.011L451.658 292.479L448.596 278.011L434.335 274.905L448.596 271.798L451.658 257.331Z" fill="white"/>
<path d="M230.308 258.62L228.543 259.188L229.958 260.243L242.135 269.321L242.142 269.327L242.15 269.333C249.224 274.512 251.962 278.136 251.5 280.444L251.496 280.462L251.494 280.48C251.189 282.741 248.071 285.024 241.218 287.227C236.575 288.719 232.166 288.932 227.861 288.137C223.431 287.319 218.568 285.336 213.307 281.896C211.495 280.711 210.274 279.819 209.57 279.198L209.527 279.161L209.481 279.124L198.595 270.611L196.965 269.336L194.857 270.014C167.222 278.895 146.182 285.575 131.733 290.056L131.72 290.06L131.708 290.064C128.182 291.197 123.583 291.329 117.571 290.28C111.698 289.255 106.234 287.164 101.179 283.858C98.2048 281.913 95.6584 279.64 93.5637 277.024C80.5731 260.391 68.8128 240.48 58.2963 217.277C56.0874 212.353 55.6916 208.72 56.8513 206.267L56.8536 206.263L56.8558 206.258C57.9905 203.751 62.0738 201.23 69.718 198.773C73.6603 197.506 77.0526 197.188 79.9499 197.512L80.0045 197.518L80.0591 197.523C83.2489 197.813 85.8555 198.636 88.0535 200.073C90.5585 201.711 92.2828 203.653 93.1539 205.941L93.1613 205.96L93.1698 205.979C104.494 231.62 115.587 251.754 126.462 266.35L127.779 268.117L130.498 267.243L174.526 253.093L176.2 252.555L174.955 251.532C161.712 240.649 150.082 229.989 140.059 219.551C136.547 215.829 135.268 212.725 135.939 210.172L135.943 210.154L135.947 210.136C136.453 207.558 139.359 205.318 145.119 203.467C149.749 201.979 153.749 201.555 157.169 201.894C160.494 202.224 163.822 203.334 167.18 205.53C169.305 206.919 170.607 207.956 171.249 208.677L171.286 208.719L171.33 208.761C182.166 219.202 193.971 229.902 206.742 240.862L208.334 242.228L210.55 241.516L220.842 238.208C225.669 236.657 229.84 236.2 233.404 236.541C236.863 236.871 240.293 238.006 243.727 240.252C249.486 244.018 251.206 246.912 250.016 249.15C248.736 251.559 244.38 254.098 236.312 256.691L230.308 258.62Z" fill="#8ECEA3" stroke="#8ECEA3" stroke-width="4"/>
<path d="M429.019 193.364L427.253 193.932L428.668 194.987L436.196 200.599L436.203 200.605L436.211 200.611C440.561 203.795 442.043 205.888 441.795 207.129L441.791 207.147L441.788 207.166C441.624 208.383 439.924 209.712 435.763 211.049C433.049 211.921 430.606 212.009 428.305 211.584C425.878 211.136 423.057 210.018 419.875 207.937C418.767 207.213 418.053 206.689 417.66 206.342L417.617 206.304L417.57 206.268L410.841 201.005L409.211 199.73L407.103 200.408C390.02 205.898 377.018 210.026 368.09 212.794L368.077 212.798L368.065 212.803C366.14 213.421 363.6 213.515 360.105 212.905C356.748 212.319 353.566 211.117 350.559 209.15C348.799 208 347.278 206.646 346.017 205.072C338.013 194.824 330.758 182.543 324.265 168.218C322.913 165.203 322.701 163.039 323.374 161.616L323.376 161.611L323.379 161.606C324.018 160.195 326.361 158.701 331.022 157.204C333.363 156.451 335.234 156.309 336.692 156.472L336.746 156.478L336.801 156.483C338.478 156.636 339.816 157.055 340.99 157.823C342.408 158.75 343.408 159.863 343.92 161.206L343.927 161.225L343.936 161.244C350.94 177.105 357.81 189.579 364.56 198.637L365.877 200.405L368.595 199.531L395.813 190.784L397.487 190.245L396.242 189.222C388.075 182.511 380.905 175.939 374.729 169.506C372.618 167.269 371.896 165.452 372.28 163.989L372.285 163.971L372.288 163.953C372.572 162.507 374.202 161.208 377.634 160.105C380.408 159.213 382.665 159.006 384.453 159.184C386.146 159.352 387.955 159.92 389.906 161.196C391.198 162.041 391.934 162.637 392.273 163.017L392.311 163.06L392.354 163.102C399.063 169.566 406.37 176.189 414.274 182.972L415.867 184.339L418.082 183.627L424.445 181.582C427.343 180.65 429.708 180.423 431.588 180.603C433.364 180.772 435.232 181.357 437.226 182.661C440.683 184.921 441.53 186.535 440.901 187.719C440.18 189.076 437.669 190.585 432.73 192.172L429.019 193.364Z" fill="#8ECEA3" stroke="#8ECEA3" stroke-width="4"/>
<path d="M297.384 184.017C313.06 191.83 325.498 202.199 332.969 212.555C340.502 222.997 342.678 232.933 339.013 240.288C335.348 247.643 326.104 251.887 313.231 252.159C300.464 252.43 284.696 248.741 269.021 240.929C253.345 233.116 240.906 222.747 233.435 212.391C225.903 201.949 223.726 192.013 227.391 184.658C231.057 177.303 240.301 173.059 253.173 172.787C265.94 172.516 281.708 176.205 297.384 184.017Z" fill="url(#paint0_linear_186_432)" stroke="#8ECEA3" stroke-width="4"/>
<path d="M221.097 150.743L253 230.5L258.5 234.5L267 239.5L274.5 242.5L238.494 149.279C238.196 148.508 237.455 148 236.628 148L222.954 148C221.539 148 220.572 149.429 221.097 150.743Z" fill="#BDE4CB" stroke="#8ECEA3" stroke-width="4"/>
<path d="M256.897 133.111L304.285 251.463C304.418 251.795 304.718 252.031 305.072 252.081L307.93 252.49C307.977 252.496 308.024 252.5 308.071 252.5L315 252.5L318.924 252.009C318.975 252.003 319.025 251.993 319.074 251.978L322.5 251L325.084 249.892C325.59 249.675 325.826 249.089 325.61 248.582L275.864 131.519C275.7 131.133 275.314 130.891 274.895 130.911L257.777 131.74C257.09 131.774 256.641 132.473 256.897 133.111Z" fill="#BDE4CB" stroke="#8ECEA3" stroke-width="4"/>
<path d="M246.166 163.956L273.169 155.293C274.671 154.81 276.28 155.638 276.763 157.14C277.245 158.643 276.417 160.252 274.915 160.734L247.912 169.398L246.166 163.956Z" fill="#8ECEA3" stroke="#8ECEA3" stroke-width="4"/>
<path d="M257.43 192.854L283.958 182.829C285.434 182.271 287.083 183.016 287.641 184.492C288.199 185.968 287.454 187.617 285.978 188.175L259.451 198.2L257.43 192.854Z" fill="#8ECEA3" stroke="#8ECEA3" stroke-width="4"/>
<path d="M269.079 220.519L292.47 210.859C293.929 210.256 295.6 210.95 296.202 212.409C296.805 213.867 296.11 215.538 294.652 216.141L271.26 225.801L269.079 220.519Z" fill="#8ECEA3" stroke="#8ECEA3" stroke-width="4"/>
<defs>
<linearGradient id="paint0_linear_186_432" x1="225.601" y1="183.766" x2="340.803" y2="241.18" gradientUnits="userSpaceOnUse">
<stop stop-color="#8ECEA3"/>
<stop offset="1" stop-color="#ECF6EF"/>
</linearGradient>
</defs>
</svg>
