<svg width="470" height="408" viewBox="0 0 470 408" fill="none" xmlns="http://www.w3.org/2000/svg"><circle cx="254.5" cy="223.5" r="175.5" fill="#ECF6EF"/><circle cx="90" cy="105" r="11" fill="#ECF6EF"/><circle cx="374.5" cy="61.5" r="20.5" fill="#ECF6EF"/><circle cx="93.5" cy="336.5" r="19.5" fill="#ECF6EF"/><circle cx="442.5" cy="317.5" r="19.5" fill="#ECF6EF"/><circle cx="404.5" cy="339.5" r="9.5" fill="#ECF6EF"/><path d="M278.525 14.537c-.58-.123-.58-.95 0-1.074l8.766-1.864a.55.55 0 0 0 .422-.42l1.887-8.705c.126-.577.948-.577 1.074 0l1.887 8.704a.55.55 0 0 0 .422.42l8.766 1.865c.58.123.58.95 0 1.074l-8.766 1.864a.55.55 0 0 0-.422.42l-1.887 8.705c-.126.576-.948.576-1.074 0l-1.887-8.704a.55.55 0 0 0-.422-.42l-8.766-1.865zm28.698 346.085c.224-1.057 1.733-1.057 1.957 0l3.343 15.793c.081.384.381.686.765.77l15.63 3.404c1.049.229 1.049 1.726 0 1.955l-15.63 3.404a1.001 1.001 0 0 0-.765.77l-3.343 15.793c-.224 1.057-1.733 1.057-1.957 0l-3.343-15.793a1.001 1.001 0 0 0-.765-.77l-15.63-3.404c-1.049-.229-1.049-1.726 0-1.955l15.63-3.404c.384-.084.684-.386.765-.77l3.343-15.793zm134.121-258c.224-1.057 1.733-1.057 1.957 0l1.95 9.213a1 1 0 0 0 .766.77l9.144 1.992c1.049.229 1.049 1.726 0 1.954l-9.144 1.992a1 1 0 0 0-.766.77l-1.95 9.213c-.224 1.057-1.733 1.057-1.957 0l-1.95-9.213a1 1 0 0 0-.765-.77l-9.144-1.992c-1.05-.228-1.05-1.725 0-1.954l9.144-1.992a1 1 0 0 0 .765-.77l1.95-9.213z" fill="#8ECEA3"/><path d="M451.658 257.331l3.063 14.467 14.26 3.107-14.26 3.106-3.063 14.468-3.062-14.468-14.261-3.106 14.261-3.107 3.062-14.467z" fill="#fff"/><path d="M230.308 258.62l-1.765.568 1.415 1.055 12.177 9.078.007.006.008.006c7.074 5.179 9.812 8.803 9.35 11.111l-.004.018-.002.018c-.305 2.261-3.423 4.544-10.276 6.747-4.643 1.492-9.052 1.705-13.357.91-4.43-.818-9.293-2.801-14.554-6.241-1.812-1.185-3.033-2.077-3.737-2.698l-.043-.037-.046-.037-10.886-8.513-1.63-1.275-2.108.678c-27.635 8.881-48.675 15.561-63.124 20.042l-.013.004-.012.004c-3.526 1.133-8.125 1.265-14.137.216-5.873-1.025-11.337-3.116-16.392-6.422-2.974-1.945-5.52-4.218-7.615-6.834-12.99-16.633-24.751-36.544-35.268-59.747-2.209-4.924-2.604-8.557-1.445-11.01l.003-.004.002-.005c1.134-2.507 5.218-5.028 12.862-7.485 3.942-1.267 7.335-1.585 10.232-1.261l.054.006.055.005c3.19.29 5.797 1.113 7.995 2.55 2.504 1.638 4.229 3.58 5.1 5.868l.007.019.009.019c11.324 25.641 22.417 45.775 33.292 60.371l1.317 1.767 2.719-.874 44.028-14.15 1.674-.538-1.245-1.023c-13.243-10.883-24.873-21.543-34.896-31.981-3.512-3.722-4.791-6.826-4.12-9.379l.004-.018.004-.018c.506-2.578 3.412-4.818 9.172-6.669 4.63-1.488 8.63-1.912 12.05-1.573 3.325.33 6.653 1.44 10.011 3.636 2.125 1.389 3.427 2.426 4.069 3.147l.037.042.044.042c10.836 10.441 22.641 21.141 35.412 32.101l1.592 1.366 2.216-.712 10.292-3.308c4.827-1.551 8.998-2.008 12.562-1.667 3.459.33 6.889 1.465 10.323 3.711 5.759 3.766 7.479 6.66 6.289 8.898-1.28 2.409-5.636 4.948-13.704 7.541l-6.004 1.929zm198.711-65.256l-1.766.568 1.415 1.055 7.528 5.612.007.006.008.006c4.35 3.184 5.832 5.277 5.584 6.518l-.004.018-.003.019c-.164 1.217-1.864 2.546-6.025 3.883-2.714.872-5.157.96-7.458.535-2.427-.448-5.248-1.566-8.43-3.647-1.108-.724-1.822-1.248-2.215-1.595l-.043-.038-.047-.036-6.729-5.263-1.63-1.275-2.108.678c-17.083 5.49-30.085 9.618-39.013 12.386l-.013.004-.012.005c-1.925.618-4.465.712-7.96.102-3.357-.586-6.539-1.788-9.546-3.755-1.76-1.15-3.281-2.504-4.542-4.078-8.004-10.248-15.259-22.529-21.752-36.854-1.352-3.015-1.564-5.179-.891-6.602l.002-.005.003-.005c.639-1.411 2.982-2.905 7.643-4.402 2.341-.753 4.212-.895 5.67-.732l.054.006.055.005c1.677.153 3.015.572 4.189 1.34 1.418.927 2.418 2.04 2.93 3.383l.007.019.009.019c7.004 15.861 13.874 28.335 20.624 37.393l1.317 1.768 2.718-.874 27.218-8.747 1.674-.539-1.245-1.023c-8.167-6.711-15.337-13.283-21.513-19.716-2.111-2.237-2.833-4.054-2.449-5.517l.005-.018.003-.018c.284-1.446 1.914-2.745 5.346-3.848 2.774-.892 5.031-1.099 6.819-.921 1.693.168 3.502.736 5.453 2.012 1.292.845 2.028 1.441 2.367 1.821l.038.043.043.042c6.709 6.464 14.016 13.087 21.92 19.87l1.593 1.367 2.215-.712 6.363-2.045c2.898-.932 5.263-1.159 7.143-.979 1.776.169 3.644.754 5.638 2.058 3.457 2.26 4.304 3.874 3.675 5.058-.721 1.357-3.232 2.866-8.171 4.453l-3.711 1.192z" fill="#8ECEA3" stroke="#8ECEA3" stroke-width="4"/><path d="M297.384 184.017c15.676 7.813 28.114 18.182 35.585 28.538 7.533 10.442 9.709 20.378 6.044 27.733s-12.909 11.599-25.782 11.871c-12.767.271-28.535-3.418-44.21-11.23-15.676-7.813-28.115-18.182-35.586-28.538-7.532-10.442-9.709-20.378-6.044-27.733 3.666-7.355 12.91-11.599 25.782-11.871 12.767-.271 28.535 3.418 44.211 11.23z" fill="url(#a)" stroke="#8ECEA3" stroke-width="4"/><path d="M221.097 150.743L253 230.5l5.5 4 8.5 5 7.5 3-36.006-93.221a2 2 0 0 0-1.866-1.279h-13.674a2 2 0 0 0-1.857 2.743zm35.8-17.632l47.388 118.352a.999.999 0 0 0 .787.618l2.858.409c.047.006.094.01.141.01H315l3.924-.491a.85.85 0 0 0 .15-.031L322.5 251l2.584-1.108a1 1 0 0 0 .526-1.31l-49.746-117.063a1 1 0 0 0-.969-.608l-17.118.829a1 1 0 0 0-.88 1.371z" fill="#BDE4CB" stroke="#8ECEA3" stroke-width="4"/><path d="M246.166 163.956l27.003-8.663a2.858 2.858 0 1 1 1.746 5.441l-27.003 8.664-1.746-5.442zm11.264 28.898l26.528-10.025a2.858 2.858 0 0 1 2.02 5.346L259.451 198.2l-2.021-5.346zm11.649 27.665l23.391-9.66a2.856 2.856 0 1 1 2.182 5.282l-23.392 9.66-2.181-5.282z" fill="#8ECEA3" stroke="#8ECEA3" stroke-width="4"/><defs><linearGradient id="a" x1="225.601" y1="183.766" x2="340.803" y2="241.18" gradientUnits="userSpaceOnUse"><stop stop-color="#8ECEA3"/><stop offset="1" stop-color="#ECF6EF"/></linearGradient></defs></svg>