<svg width="429" height="401" viewBox="0 0 429 401" fill="none" xmlns="http://www.w3.org/2000/svg">
<circle cx="214.5" cy="216.5" r="175.5" fill="#ECF6EF"/>
<circle cx="50" cy="98" r="11" fill="#ECF6EF"/>
<circle cx="275.5" cy="20.5" r="20.5" fill="#ECF6EF"/>
<circle cx="66.5" cy="356.5" r="19.5" fill="#ECF6EF"/>
<circle cx="402.5" cy="310.5" r="19.5" fill="#ECF6EF"/>
<circle cx="364.5" cy="332.5" r="9.5" fill="#ECF6EF"/>
<path d="M224.525 49.537C223.946 49.4137 223.946 48.5863 224.525 48.463L233.291 46.5989C233.502 46.554 233.668 46.3894 233.713 46.1783L235.601 37.4744C235.726 36.8975 236.549 36.8975 236.674 37.4744L238.561 46.1783C238.607 46.3894 238.772 46.554 238.984 46.5989L247.749 48.463C248.329 48.5863 248.329 49.4137 247.749 49.537L238.984 51.4011C238.772 51.446 238.607 51.6106 238.561 51.8217L236.674 60.5256C236.549 61.1025 235.726 61.1025 235.601 60.5256L233.713 51.8217C233.668 51.6106 233.502 51.446 233.291 51.4011L224.525 49.537Z" fill="#8ECEA3"/>
<path d="M24.2229 228.622C24.4467 227.565 25.9558 227.565 26.1796 228.622L29.5224 244.415C29.6038 244.799 29.9034 245.101 30.2878 245.185L45.9173 248.589C46.9669 248.818 46.9668 250.315 45.9173 250.544L30.2878 253.948C29.9034 254.032 29.6038 254.334 29.5224 254.718L26.1796 270.511C25.9558 271.568 24.4467 271.568 24.2229 270.511L20.8801 254.718C20.7986 254.334 20.499 254.032 20.1146 253.948L4.48513 250.544C3.4356 250.315 3.43561 248.818 4.48513 248.589L20.1146 245.185C20.499 245.101 20.7986 244.799 20.8801 244.415L24.2229 228.622Z" fill="#8ECEA3"/>
<path d="M371.345 102.622C371.568 101.565 373.078 101.565 373.301 102.622L375.251 111.835C375.333 112.22 375.633 112.521 376.017 112.605L385.161 114.597C386.21 114.826 386.21 116.323 385.161 116.551L376.017 118.543C375.633 118.627 375.333 118.928 375.251 119.313L373.301 128.526C373.078 129.583 371.568 129.583 371.345 128.526L369.395 119.313C369.313 118.928 369.014 118.627 368.629 118.543L359.485 116.551C358.436 116.323 358.436 114.826 359.485 114.597L368.629 112.605C369.014 112.521 369.313 112.22 369.395 111.835L371.345 102.622Z" fill="#8ECEA3"/>
<path d="M411.659 250.331L414.721 264.798L428.982 267.905L414.721 271.011L411.659 285.479L408.596 271.011L394.336 267.905L408.596 264.798L411.659 250.331Z" fill="white"/>
<path d="M314 137L77.5 227.5L128 368L158.5 381.5L196.5 389.5L235 388L257.5 384L277.5 378L310.5 361L338.5 339L340.662 336.206C352.865 320.431 363.684 303.634 373 286L314 137Z" fill="url(#paint0_linear_187_440)"/>
<path d="M95.4998 187.5L70.4998 173.5L287.5 91.5L276 120L284.5 146.5L105 215L95.4998 187.5Z" fill="#BDE4CB"/>
<path d="M127 367.5V367.5C148.882 378.688 172.571 385.913 196.972 388.841L197.582 388.915L214.979 388.915C228.01 388.915 241.005 387.528 253.743 384.777L258.056 383.846C271.675 380.906 284.824 376.104 297.134 369.576V369.576C306.738 364.483 315.767 358.373 324.066 351.351L326.76 349.072C333.962 342.977 340.645 336.295 346.739 329.092V329.092C355.272 319.008 362.601 307.964 368.578 296.184L374 285.5" stroke="#8ECEA3" stroke-width="4"/>
<path d="M75.5818 225.415L128 368.467" stroke="#8ECEA3" stroke-width="4"/>
<path d="M316.082 136.915L373.588 287.172" stroke="#8ECEA3" stroke-width="4"/>
<path d="M66.5819 173.914L290.575 89.7461" stroke="#8ECEA3" stroke-width="4"/>
<path d="M74.4234 227.991L312.931 136.011L277.77 119.682C276.761 119.213 276.328 118.01 276.808 117.006L289.053 91.3842" stroke="#8ECEA3" stroke-width="4"/>
<path d="M68.5915 173.224L93.8038 186.741C94.7622 187.255 95.1344 188.44 94.6417 189.41L75.5818 226.914" stroke="#8ECEA3" stroke-width="4"/>
<path d="M67.5818 171.415L83.8273 212.023" stroke="#8ECEA3" stroke-width="4"/>
<path d="M95 189L105 217" stroke="#8ECEA3" stroke-width="4"/>
<path d="M277 119L287 148" stroke="#8ECEA3" stroke-width="4"/>
<path d="M289.228 91.8523L303.582 131.414" stroke="#8ECEA3" stroke-width="4"/>
<circle cx="169.5" cy="214.5" r="10.5" fill="#BDE4CB"/>
<circle cx="154.5" cy="160.5" r="7.5" fill="#ECF6EF"/>
<circle cx="235.5" cy="189.5" r="10.5" fill="#BDE4CB"/>
<circle cx="200.5" cy="143.5" r="7.5" fill="#ECF6EF"/>
<defs>
<linearGradient id="paint0_linear_187_440" x1="225.25" y1="137" x2="225.25" y2="389.5" gradientUnits="userSpaceOnUse">
<stop stop-color="#ECF6EF"/>
<stop offset="1" stop-color="#C8EAD4"/>
</linearGradient>
</defs>
</svg>
