<svg width="429" height="401" viewBox="0 0 429 401" fill="none" xmlns="http://www.w3.org/2000/svg"><circle cx="214.5" cy="216.5" r="175.5" fill="#ECF6EF"/><circle cx="50" cy="98" r="11" fill="#ECF6EF"/><circle cx="275.5" cy="20.5" r="20.5" fill="#ECF6EF"/><circle cx="66.5" cy="356.5" r="19.5" fill="#ECF6EF"/><circle cx="402.5" cy="310.5" r="19.5" fill="#ECF6EF"/><circle cx="364.5" cy="332.5" r="9.5" fill="#ECF6EF"/><path d="M224.525 49.537c-.579-.123-.579-.95 0-1.074l8.766-1.864a.548.548 0 0 0 .422-.42l1.888-8.705c.125-.576.948-.576 1.073 0l1.887 8.704a.549.549 0 0 0 .423.42l8.765 1.865c.58.123.58.95 0 1.074l-8.765 1.864a.549.549 0 0 0-.423.42l-1.887 8.705c-.125.576-.948.576-1.073 0l-1.888-8.704a.548.548 0 0 0-.422-.42l-8.766-1.865zM24.223 228.622c.224-1.057 1.733-1.057 1.957 0l3.342 15.793c.082.384.381.686.766.77l15.63 3.404c1.049.229 1.049 1.726 0 1.955l-15.63 3.404a1.001 1.001 0 0 0-.766.77l-3.342 15.793c-.224 1.057-1.733 1.057-1.957 0l-3.343-15.793a1.002 1.002 0 0 0-.765-.77l-15.63-3.404c-1.05-.229-1.05-1.726 0-1.955l15.63-3.404c.384-.084.684-.386.765-.77l3.343-15.793zm347.122-126c.223-1.057 1.733-1.057 1.956 0l1.95 9.213c.082.385.382.686.766.77l9.144 1.992c1.049.229 1.049 1.726 0 1.954l-9.144 1.992a1.002 1.002 0 0 0-.766.77l-1.95 9.213c-.223 1.057-1.733 1.057-1.956 0l-1.95-9.213a1 1 0 0 0-.766-.77l-9.144-1.992c-1.049-.228-1.049-1.725 0-1.954l9.144-1.992a1 1 0 0 0 .766-.77l1.95-9.213z" fill="#8ECEA3"/><path d="M411.659 250.331l3.062 14.467 14.261 3.107-14.261 3.106-3.062 14.468-3.063-14.468-14.26-3.106 14.26-3.107 3.063-14.467z" fill="#fff"/><path d="M314 137L77.5 227.5 128 368l30.5 13.5 38 8L235 388l22.5-4 20-6 33-17 28-22 2.162-2.794A346.853 346.853 0 0 0 373 286l-59-149z" fill="url(#a)"/><path d="M95.5 187.5l-25-14 217-82L276 120l8.5 26.5L105 215l-9.5-27.5z" fill="#BDE4CB"/><path d="M127 367.5a208.188 208.188 0 0 0 69.972 21.341l.61.074h17.397a183.63 183.63 0 0 0 38.764-4.138l4.313-.931a151.79 151.79 0 0 0 66.01-32.495l2.694-2.279a170.081 170.081 0 0 0 41.818-52.888L374 285.5M75.582 225.415L128 368.467m188.082-231.552l57.506 150.257M66.582 173.914l223.993-84.168M74.423 227.991l238.508-91.98-35.161-16.329a2 2 0 0 1-.962-2.676l12.245-25.622m-220.462 81.84l25.213 13.517a2 2 0 0 1 .838 2.669l-19.06 37.504m-8-55.499l16.245 40.608M95 189l10 28m172-98l10 29m2.228-56.148l14.354 39.562" stroke="#8ECEA3" stroke-width="4"/><circle cx="169.5" cy="214.5" r="10.5" fill="#BDE4CB"/><circle cx="154.5" cy="160.5" r="7.5" fill="#ECF6EF"/><circle cx="235.5" cy="189.5" r="10.5" fill="#BDE4CB"/><circle cx="200.5" cy="143.5" r="7.5" fill="#ECF6EF"/><defs><linearGradient id="a" x1="225.25" y1="137" x2="225.25" y2="389.5" gradientUnits="userSpaceOnUse"><stop stop-color="#ECF6EF"/><stop offset="1" stop-color="#C8EAD4"/></linearGradient></defs></svg>