<svg width="449" height="358" viewBox="0 0 449 358" fill="none" xmlns="http://www.w3.org/2000/svg"><circle cx="234.5" cy="182.5" r="175.5" fill="#ECF6EF"/><circle cx="70" cy="64" r="11" fill="#ECF6EF"/><circle cx="354.5" cy="20.5" r="20.5" fill="#ECF6EF"/><circle cx="73.5" cy="295.5" r="19.5" fill="#ECF6EF"/><circle cx="422.5" cy="276.5" r="19.5" fill="#ECF6EF"/><circle cx="384.5" cy="298.5" r="9.5" fill="#ECF6EF"/><path d="M262.525 14.537c-.579-.123-.579-.95 0-1.074l8.766-1.864a.548.548 0 0 0 .422-.42l1.888-8.705c.125-.577.948-.577 1.073 0l1.887 8.704a.549.549 0 0 0 .423.42l8.765 1.865c.58.123.58.95 0 1.074l-8.765 1.864a.549.549 0 0 0-.423.42l-1.887 8.705c-.125.576-.948.576-1.073 0l-1.888-8.704a.548.548 0 0 0-.422-.42l-8.766-1.865zM24.223 208.622c.224-1.057 1.733-1.057 1.957 0l3.342 15.793c.082.384.381.686.766.77l15.63 3.404c1.049.229 1.049 1.726 0 1.955l-15.63 3.404a1.001 1.001 0 0 0-.766.77l-3.342 15.793c-.224 1.057-1.733 1.057-1.957 0l-3.343-15.793a1.002 1.002 0 0 0-.765-.77l-15.63-3.404c-1.05-.229-1.05-1.726 0-1.955l15.63-3.404c.384-.084.684-.386.765-.77l3.343-15.793zm367.122-140c.223-1.057 1.733-1.057 1.956 0l1.95 9.213c.082.385.382.686.766.77l9.144 1.992c1.049.229 1.049 1.726 0 1.954l-9.144 1.992a1.002 1.002 0 0 0-.766.77l-1.95 9.213c-.223 1.057-1.733 1.057-1.956 0l-1.95-9.213a1 1 0 0 0-.766-.77l-9.144-1.992c-1.049-.228-1.049-1.725 0-1.954l9.144-1.992a1 1 0 0 0 .766-.77l1.95-9.213z" fill="#8ECEA3"/><path d="M431.658 216.331l3.063 14.467 14.26 3.107-14.26 3.106-3.063 14.468-3.062-14.468-14.261-3.106 14.261-3.107 3.062-14.467z" fill="#fff"/><rect x="230.846" y="81.891" width="180.208" height="194.008" rx="10.492" transform="rotate(10 230.846 81.891)" fill="#fff" stroke="#8ECEA3" stroke-width="4"/><rect x="239.457" y="94.188" width="157.917" height="137.749" rx="10.492" transform="rotate(10 239.457 94.188)" fill="#ECF6EF" stroke="#ECF6EF" stroke-width="4"/><rect x="56.683" y="113.184" width="180.208" height="194.008" rx="10.492" transform="rotate(-10 56.683 113.184)" fill="#fff" stroke="#8ECEA3" stroke-width="4"/><rect x="68.98" y="121.795" width="157.917" height="137.749" rx="10.492" transform="rotate(-10 68.98 121.795)" fill="#ECF6EF" stroke="#ECF6EF" stroke-width="4"/><rect x="130.613" y="66" width="214.934" height="231.453" rx="12.165" fill="#fff" stroke="#8ECEA3" stroke-width="4"/><path d="M155.485 78.707c-6.719 0-12.166 5.447-12.166 12.166v139.775c0 6.719 5.447 12.166 12.166 12.166h163.918c6.719 0 12.166-5.447 12.166-12.166V90.873c0-6.72-5.447-12.166-12.166-12.166H155.485z" fill="url(#a)" stroke="#8ECEA3" stroke-width="4"/><circle cx="261.607" cy="117.976" r="14.858" fill="#fff"/><path d="M280.436 148.308c.981-1.544 3.233-1.544 4.213 0l32.307 50.869c1.055 1.661-.139 3.833-2.107 3.833h-64.612c-1.968 0-3.162-2.172-2.107-3.833l32.306-50.869z" fill="#8ECEA3"/><path d="M207.407 115.765a.49.49 0 0 1 .838-.012l53.366 84.866a.49.49 0 0 1-.415.751H157.904a.49.49 0 0 1-.422-.739l49.925-84.866z" fill="#BDE4CB" stroke="#BDE4CB" stroke-width="4"/><path d="M206.796 111.408a1.052 1.052 0 0 1 1.808-.027l14.299 23.308c.597.971-.564 2.064-1.498 1.41l-4.335-3.034a1.05 1.05 0 0 0-1.233.02l-6.179 4.635c-.305.228-.71.274-1.058.119l-7.197-3.198a1.05 1.05 0 0 0-.861.003l-6.612 3.005c-.929.423-1.855-.594-1.346-1.48l14.212-24.761zm76.828 33.371a.78.78 0 0 0-1.341-.019l-10.609 17.292c-.443.722.418 1.532 1.111 1.047l3.179-2.225a.78.78 0 0 1 .961.052l4.53 3.964a.778.778 0 0 0 .892.095l5.255-2.92a.78.78 0 0 1 .701-.028l4.867 2.212c.69.314 1.376-.441.999-1.098l-10.545-18.372z" fill="#fff"/><path d="M173.811 212.526h49.301" stroke="#BDE4CB" stroke-width="4" stroke-linecap="round"/><path d="M147 203h183" stroke="#8ECEA3" stroke-width="4" stroke-linecap="square"/><path d="M209.601 220.293h31.749m-55.383.337h18.91m67.536-7.428h15.533" stroke="#BDE4CB" stroke-width="4" stroke-linecap="round"/><defs><linearGradient id="a" x1="122" y1="65.5" x2="315" y2="235" gradientUnits="userSpaceOnUse"><stop stop-color="#BDE4CB"/><stop offset="1" stop-color="#ECF6EF"/></linearGradient></defs></svg>