<svg width="449" height="358" viewBox="0 0 449 358" fill="none" xmlns="http://www.w3.org/2000/svg">
<circle cx="234.5" cy="182.5" r="175.5" fill="#ECF6EF"/>
<circle cx="70" cy="64" r="11" fill="#ECF6EF"/>
<circle cx="354.5" cy="20.5" r="20.5" fill="#ECF6EF"/>
<circle cx="73.5" cy="295.5" r="19.5" fill="#ECF6EF"/>
<circle cx="422.5" cy="276.5" r="19.5" fill="#ECF6EF"/>
<circle cx="384.5" cy="298.5" r="9.5" fill="#ECF6EF"/>
<path d="M262.525 14.537C261.946 14.4137 261.946 13.5863 262.525 13.463L271.291 11.5989C271.502 11.554 271.668 11.3894 271.713 11.1783L273.601 2.47438C273.726 1.89748 274.549 1.89748 274.674 2.47438L276.561 11.1783C276.607 11.3894 276.772 11.554 276.984 11.5989L285.749 13.463C286.329 13.5863 286.329 14.4137 285.749 14.537L276.984 16.4011C276.772 16.446 276.607 16.6106 276.561 16.8217L274.674 25.5256C274.549 26.1025 273.726 26.1025 273.601 25.5256L271.713 16.8217C271.668 16.6106 271.502 16.446 271.291 16.4011L262.525 14.537Z" fill="#8ECEA3"/>
<path d="M24.2229 208.622C24.4467 207.565 25.9558 207.565 26.1796 208.622L29.5224 224.415C29.6038 224.799 29.9034 225.101 30.2878 225.185L45.9173 228.589C46.9669 228.818 46.9668 230.315 45.9173 230.544L30.2878 233.948C29.9034 234.032 29.6038 234.334 29.5224 234.718L26.1796 250.511C25.9558 251.568 24.4467 251.568 24.2229 250.511L20.8801 234.718C20.7986 234.334 20.499 234.032 20.1146 233.948L4.48513 230.544C3.4356 230.315 3.43561 228.818 4.48513 228.589L20.1146 225.185C20.499 225.101 20.7986 224.799 20.8801 224.415L24.2229 208.622Z" fill="#8ECEA3"/>
<path d="M391.345 68.6219C391.568 67.5647 393.078 67.5647 393.301 68.6219L395.251 77.835C395.333 78.2199 395.633 78.5212 396.017 78.605L405.161 80.597C406.21 80.8256 406.21 82.3225 405.161 82.5512L396.017 84.5432C395.633 84.6269 395.333 84.9283 395.251 85.3132L393.301 94.5262C393.078 95.5834 391.568 95.5834 391.345 94.5262L389.395 85.3132C389.313 84.9283 389.014 84.6269 388.629 84.5432L379.485 82.5512C378.436 82.3225 378.436 80.8256 379.485 80.597L388.629 78.605C389.014 78.5212 389.313 78.2199 389.395 77.835L391.345 68.6219Z" fill="#8ECEA3"/>
<path d="M431.658 216.331L434.721 230.798L448.981 233.905L434.721 237.011L431.658 251.479L428.596 237.011L414.335 233.905L428.596 230.798L431.658 216.331Z" fill="white"/>
<rect x="230.846" y="81.8913" width="180.208" height="194.008" rx="10.492" transform="rotate(10 230.846 81.8913)" fill="white" stroke="#8ECEA3" stroke-width="4"/>
<rect x="239.457" y="94.1882" width="157.917" height="137.749" rx="10.492" transform="rotate(10 239.457 94.1882)" fill="#ECF6EF" stroke="#ECF6EF" stroke-width="4"/>
<rect x="56.6831" y="113.184" width="180.208" height="194.008" rx="10.492" transform="rotate(-10 56.6831 113.184)" fill="white" stroke="#8ECEA3" stroke-width="4"/>
<rect x="68.98" y="121.795" width="157.917" height="137.749" rx="10.492" transform="rotate(-10 68.98 121.795)" fill="#ECF6EF" stroke="#ECF6EF" stroke-width="4"/>
<rect x="130.613" y="66" width="214.934" height="231.453" rx="12.1655" fill="white" stroke="#8ECEA3" stroke-width="4"/>
<path d="M155.485 78.707C148.766 78.707 143.319 84.1537 143.319 90.8725V230.648C143.319 237.367 148.766 242.814 155.485 242.814H319.403C326.122 242.814 331.569 237.367 331.569 230.648V90.8725C331.569 84.1537 326.122 78.707 319.403 78.707H155.485Z" fill="url(#paint0_linear_186_436)" stroke="#8ECEA3" stroke-width="4"/>
<circle cx="261.607" cy="117.976" r="14.8578" fill="white"/>
<path d="M280.436 148.308C281.417 146.764 283.669 146.764 284.649 148.308L316.956 199.177C318.011 200.838 316.817 203.01 314.849 203.01H250.237C248.269 203.01 247.075 200.838 248.13 199.177L280.436 148.308Z" fill="#8ECEA3"/>
<path d="M207.407 115.765C207.594 115.449 208.049 115.442 208.245 115.753L261.611 200.619C261.817 200.945 261.582 201.37 261.196 201.37H157.904C157.525 201.37 157.289 200.958 157.482 200.631L207.407 115.765Z" fill="#BDE4CB" stroke="#BDE4CB" stroke-width="4"/>
<path d="M206.796 111.408C207.193 110.716 208.186 110.701 208.604 111.381L222.903 134.689C223.5 135.66 222.339 136.753 221.405 136.099L217.07 133.065C216.698 132.804 216.2 132.813 215.837 133.085L209.658 137.72C209.353 137.948 208.948 137.994 208.6 137.839L201.403 134.641C201.129 134.519 200.815 134.52 200.542 134.644L193.93 137.649C193.001 138.072 192.075 137.055 192.584 136.169L206.796 111.408Z" fill="white"/>
<path d="M283.624 144.779C283.329 144.266 282.593 144.255 282.283 144.76L271.674 162.052C271.231 162.774 272.092 163.584 272.785 163.099L275.964 160.874C276.258 160.668 276.654 160.69 276.925 160.926L281.455 164.89C281.702 165.107 282.059 165.145 282.347 164.985L287.602 162.065C287.818 161.945 288.078 161.935 288.303 162.037L293.17 164.249C293.86 164.563 294.546 163.808 294.169 163.151L283.624 144.779Z" fill="white"/>
<path d="M173.811 212.526H223.112" stroke="#BDE4CB" stroke-width="4" stroke-linecap="round"/>
<path d="M147 203H330" stroke="#8ECEA3" stroke-width="4" stroke-linecap="square"/>
<path d="M209.601 220.293H241.35" stroke="#BDE4CB" stroke-width="4" stroke-linecap="round"/>
<path d="M185.967 220.63H204.877" stroke="#BDE4CB" stroke-width="4" stroke-linecap="round"/>
<path d="M272.413 213.202H287.946" stroke="#BDE4CB" stroke-width="4" stroke-linecap="round"/>
<defs>
<linearGradient id="paint0_linear_186_436" x1="122" y1="65.5" x2="315" y2="235" gradientUnits="userSpaceOnUse">
<stop stop-color="#BDE4CB"/>
<stop offset="1" stop-color="#ECF6EF"/>
</linearGradient>
</defs>
</svg>
