<svg width="423" height="387" viewBox="0 0 423 387" fill="none" xmlns="http://www.w3.org/2000/svg"><circle cx="208.5" cy="210.5" r="175.5" fill="#ECF6EF"/><circle cx="44" cy="92" r="11" fill="#ECF6EF"/><circle cx="333.5" cy="20.5" r="20.5" fill="#ECF6EF"/><circle cx="47.5" cy="323.5" r="19.5" fill="#ECF6EF"/><circle cx="396.5" cy="304.5" r="19.5" fill="#ECF6EF"/><circle cx="358.5" cy="326.5" r="9.5" fill="#ECF6EF"/><path d="M405.658 244.331l3.063 14.467 14.26 3.107-14.26 3.106-3.063 14.468-3.062-14.468-14.261-3.106 14.261-3.107 3.062-14.467z" fill="#fff"/><path d="M387.345 96.622c.223-1.057 1.733-1.057 1.956 0l1.95 9.213c.082.385.382.686.766.77l9.144 1.992c1.049.229 1.049 1.726 0 1.954l-9.144 1.992a1.002 1.002 0 0 0-.766.77l-1.95 9.213c-.223 1.057-1.733 1.057-1.956 0l-1.95-9.213a1 1 0 0 0-.766-.77l-9.144-1.992c-1.049-.228-1.049-1.725 0-1.954l9.144-1.992a1 1 0 0 0 .766-.77l1.95-9.213zm-363.122 121c.224-1.057 1.733-1.057 1.957 0l3.342 15.793c.082.384.381.686.766.77l15.63 3.404c1.049.229 1.049 1.726 0 1.955l-15.63 3.404a1.001 1.001 0 0 0-.766.77l-3.342 15.793c-.224 1.057-1.733 1.057-1.957 0l-3.343-15.793a1.002 1.002 0 0 0-.765-.77l-15.63-3.404c-1.05-.229-1.05-1.726 0-1.955l15.63-3.404c.384-.084.684-.386.765-.77l3.343-15.793zM86.525 49.537c-.58-.123-.58-.95 0-1.074l8.766-1.864a.549.549 0 0 0 .422-.42l1.888-8.705c.125-.576.948-.576 1.073 0l1.887 8.704a.549.549 0 0 0 .423.42l8.765 1.865c.58.123.58.95 0 1.074l-8.765 1.864a.549.549 0 0 0-.423.42l-1.887 8.705c-.125.576-.948.576-1.073 0l-1.888-8.704a.549.549 0 0 0-.422-.42l-8.766-1.865z" fill="#8ECEA3"/><circle cx="245" cy="146" r="111" fill="#BDE4CB" stroke="#8ECEA3" stroke-width="4"/><circle cx="245" cy="146" r="93" fill="url(#a)" stroke="#8ECEA3" stroke-width="4"/><path d="M100.244 351.626l59.992-83.323 2.666-1.999 6-1.334h8.665l4.666 3.333 4.666 2 4 4.666 3.333 7.333-51.994 97.987-5.999 3.333h-7.332l-9.999-3.333-7.999-3.333-7.332-9.998-3.333-4v-11.332z" fill="#BDE4CB"/><path d="M205.564 250.306l-15.209 24.663m-2.667-32.662l-14.664 21.997m-8.789.666l-64.658 88.656m93.989-72.658l-51.994 100.654m21.331-115.318l1.097-.611a13.168 13.168 0 0 1 7.889-1.58 13.17 13.17 0 0 1 3.255.799l1.879.725.634.211a23.961 23.961 0 0 1 9.365 5.788l2.067 2.068a14.538 14.538 0 0 1 3.792 6.628l.684 2.636m-50.66 97.321l-2.839 1.277a23.041 23.041 0 0 1-15.666 1.176l-1.912-.536-.641-.217a39.834 39.834 0 0 1-15.099-9.289l-2.47-2.423a16.872 16.872 0 0 1-4.41-16.668l.376-1.316" stroke="#8ECEA3" stroke-width="4"/><defs><linearGradient id="a" x1="293.5" y1="60" x2="200.5" y2="235.5" gradientUnits="userSpaceOnUse"><stop stop-color="#BDE4CB"/><stop offset="1" stop-color="#ECF6EF"/></linearGradient></defs></svg>