<?xml version="1.0" encoding="utf-8"?><svg xmlns="http://www.w3.org/2000/svg" xmlns:xlink="http://www.w3.org/1999/xlink"><symbol viewBox="0 0 8 13" id="chev-left" xmlns="http://www.w3.org/2000/svg"><path fill-rule="evenodd" clip-rule="evenodd" d="M7.177 1.081a.857.857 0 010 1.212L2.641 6.83l4.536 4.537a.857.857 0 01-1.212 1.212L.822 7.436a.857.857 0 010-1.212l5.143-5.143a.857.857 0 011.212 0z"/></symbol><symbol viewBox="0 0 8 13" id="chev-right" xmlns="http://www.w3.org/2000/svg"><path fill-rule="evenodd" clip-rule="evenodd" d="M.822 1.081a.857.857 0 011.213 0l5.142 5.143a.857.857 0 010 1.212L2.035 12.58a.857.857 0 11-1.213-1.212L5.36 6.83.822 2.293a.857.857 0 010-1.212z"/></symbol><symbol viewBox="0 0 25 24" id="close" xmlns="http://www.w3.org/2000/svg"><path fill-rule="evenodd" clip-rule="evenodd" d="M12.059 3c-4.981 0-9.017 4.031-9.017 9s4.036 9 9.017 9 9.016-4.031 9.016-9-4.035-9-9.016-9zM1.042 12c0-6.077 4.934-11 11.017-11 6.083 0 11.016 4.923 11.016 11S18.142 23 12.06 23 1.042 18.077 1.042 12z"/><path fill-rule="evenodd" clip-rule="evenodd" d="M15.771 8.293a1 1 0 010 1.415l-6.01 6a1 1 0 11-1.414-1.416l6.01-6a1 1 0 011.415.001z"/><path fill-rule="evenodd" clip-rule="evenodd" d="M8.346 8.293a1 1 0 011.414 0l6.01 6a1 1 0 11-1.413 1.415l-6.01-6a1 1 0 010-1.415z"/></symbol><symbol viewBox="0 0 15 15" id="events" xmlns="http://www.w3.org/2000/svg"><path d="M13.125 10.625V5h-8.75v5.625h8.75zm0-8.75a1.25 1.25 0 011.25 1.25v7.5a1.25 1.25 0 01-1.25 1.25h-8.75a1.25 1.25 0 01-1.25-1.25v-7.5a1.25 1.25 0 011.25-1.25H5V.625h1.25v1.25h5V.625h1.25v1.25h.625zm-2.169 5.037L8.181 9.688 6.506 8.011l.663-.662L8.18 8.363l2.113-2.113.662.662zm-9.081 6.213h8.75v1.25h-8.75a1.25 1.25 0 01-1.25-1.25v-7.5h1.25v7.5z"/></symbol><symbol viewBox="0 0 13 13" id="exit" xmlns="http://www.w3.org/2000/svg"><path d="M2.125 12.125c-.344 0-.638-.122-.883-.367a1.206 1.206 0 01-.367-.883v-8.75c0-.344.123-.638.367-.883a1.21 1.21 0 01.883-.367H6.5v1.25H2.125v8.75H6.5v1.25H2.125zM9 9.625l-.86-.906 1.594-1.594H4.625v-1.25h5.11L8.14 4.281 9 3.375 12.125 6.5 9 9.625z"/></symbol><symbol viewBox="0 0 13 15" id="handler" xmlns="http://www.w3.org/2000/svg"><path d="M6.5 14.375c-3.473-.772-6.25-4.049-6.25-7.5v-3.75L6.5.625l6.25 2.5v3.75c0 3.453-2.777 6.728-6.25 7.5zM1.5 3.75v3.125a6.612 6.612 0 005 6.25 6.612 6.612 0 005-6.25V3.75l-5-1.875-5 1.875z"/><path d="M6.5 6.875a1.563 1.563 0 100-3.125 1.563 1.563 0 000 3.125zm-3.125 2.5A3.614 3.614 0 006.5 11.25a3.614 3.614 0 003.125-1.875C9.609 8.19 7.536 7.5 6.5 7.5c-1.042 0-3.11.69-3.125 1.875z"/></symbol><symbol viewBox="0 0 13 13" id="history" xmlns="http://www.w3.org/2000/svg"><path d="M6.5 12.125c-1.438 0-2.69-.476-3.757-1.43-1.068-.952-1.68-2.143-1.837-3.57h1.281a4.178 4.178 0 001.446 2.688A4.243 4.243 0 006.5 10.874c1.219 0 2.253-.424 3.102-1.273.849-.849 1.273-1.883 1.273-3.102 0-1.219-.424-2.253-1.273-3.101C8.753 2.55 7.719 2.125 6.5 2.125c-.719 0-1.39.167-2.016.5A4.645 4.645 0 002.906 4h1.719v1.25H.875V1.5h1.25v1.469A5.582 5.582 0 016.5.875a5.44 5.44 0 012.196.446 5.725 5.725 0 011.78 1.202 5.73 5.73 0 011.204 1.781 5.43 5.43 0 01.445 2.196c0 .781-.148 1.513-.445 2.196a5.707 5.707 0 01-1.203 1.78 5.73 5.73 0 01-1.781 1.204 5.43 5.43 0 01-2.196.445zm1.75-3L5.875 6.75V3.375h1.25V6.25l2 2-.875.875z"/></symbol><symbol viewBox="0 0 15 15" id="prods" xmlns="http://www.w3.org/2000/svg"><path d="M4.01 3.889V3.5C4.01 1.574 5.564 0 7.5 0a3.494 3.494 0 013.49 3.5v.39h2.382c.144 0 .283.051.39.143.107.093.174.22.188.357l1.047 9.999a.533.533 0 01-.147.428.582.582 0 01-.431.183H.581a.606.606 0 01-.43-.183.55.55 0 01-.148-.428l1.047-10a.547.547 0 01.188-.356.597.597 0 01.39-.143H4.01v-.001zm1.164 0h4.652V3.5c0-1.327-1.049-2.39-2.326-2.39-1.277 0-2.326 1.063-2.326 2.39v.389-.001zM4.01 4.999H2.155l-.93 8.889h12.55L12.845 5H10.99v1.666a.543.543 0 01-.17.393.596.596 0 01-.412.163.596.596 0 01-.411-.163.543.543 0 01-.17-.393V5H5.173v1.666a.543.543 0 01-.17.393.596.596 0 01-.412.163.596.596 0 01-.411-.163.543.543 0 01-.17-.393V5z"/></symbol><symbol viewBox="0 0 15 11" id="wallet" xmlns="http://www.w3.org/2000/svg"><path d="M11.875 5.5a.625.625 0 11-1.25 0 .625.625 0 011.25 0z"/><path fill-rule="evenodd" clip-rule="evenodd" d="M6.215.031H8.16c1.149 0 2.059 0 2.77.096.733.099 1.326.306 1.794.774.578.578.762 1.351.83 2.356a1.086 1.086 0 01.665 1.035v2.416c0 .038 0 .078-.003.116a1.09 1.09 0 01-.663.92c-.067 1.004-.251 1.777-.829 2.355-.468.468-1.06.675-1.793.774-.713.096-1.622.096-2.771.096H6.215c-1.149 0-2.059 0-2.77-.096-.733-.099-1.326-.306-1.794-.774-.468-.468-.675-1.06-.774-1.793C.78 7.593.78 6.684.78 5.535v-.07c0-1.149 0-2.059.096-2.77.099-.733.306-1.326.774-1.794C2.119.433 2.71.226 3.444.127 4.157.03 5.066.03 6.215.03zm6.39 7.813h-1.211c-1.34 0-2.488-1.018-2.488-2.344 0-1.326 1.147-2.344 2.487-2.344h1.211c-.07-.838-.231-1.281-.543-1.592-.265-.265-.627-.423-1.256-.508C10.163.97 9.316.97 8.125.97H6.248c-1.191 0-2.038.001-2.68.087-.629.085-.991.243-1.256.508-.264.264-.423.627-.507 1.255-.087.643-.088 1.49-.088 2.681 0 1.192.001 2.039.088 2.681.084.628.243.99.507 1.255.264.265.627.423 1.256.508.642.086 1.489.087 2.68.087h1.875c1.192 0 2.04-.001 2.682-.087.628-.085.99-.243 1.255-.508.312-.311.473-.754.544-1.592zM3.281 3a.469.469 0 01.469-.469h2.5a.469.469 0 010 .938h-2.5A.469.469 0 013.281 3zm9.796 1.094h-1.683c-.89 0-1.55.662-1.55 1.406 0 .744.66 1.406 1.55 1.406h1.698c.129-.008.184-.095.189-.147V4.24c-.005-.052-.06-.14-.19-.147h-.013z"/></symbol></svg>