<svg width="64" height="64" viewBox="0 0 64 64" fill="none" xmlns="http://www.w3.org/2000/svg">
<path d="M32 0.888916C25.8468 0.888916 19.8318 2.71355 14.7156 6.13208C9.59939 9.55062 5.6118 14.4095 3.25708 20.0943C0.90235 25.7791 0.286246 32.0345 1.48668 38.0695C2.6871 44.1045 5.65015 49.6479 10.0011 53.9989C14.3521 58.3499 19.8956 61.3129 25.9305 62.5133C31.9655 63.7138 38.2209 63.0977 43.9057 60.7429C49.5905 58.3882 54.4494 54.4006 57.8679 49.2844C61.2865 44.1682 63.1111 38.1532 63.1111 32C63.1111 23.7488 59.8333 15.8356 53.9989 10.0011C48.1644 4.16668 40.2512 0.888916 32 0.888916ZM32 59.2222C26.6159 59.2222 21.3528 57.6257 16.8761 54.6345C12.3995 51.6433 8.91033 47.3917 6.84994 42.4175C4.78956 37.4433 4.25047 31.9698 5.30084 26.6892C6.35122 21.4086 8.94388 16.5581 12.751 12.751C16.5581 8.94391 21.4086 6.35125 26.6892 5.30087C31.9698 4.2505 37.4433 4.78959 42.4175 6.84997C47.3917 8.91036 51.6432 12.3995 54.6345 16.8762C57.6257 21.3528 59.2222 26.616 59.2222 32C59.2222 39.2198 56.3542 46.1439 51.249 51.249C46.1439 56.3542 39.2198 59.2222 32 59.2222Z" fill="#5B956C"/>
<path d="M51.4445 20.5278C51.0801 20.1657 50.5873 19.9624 50.0736 19.9624C49.5599 19.9624 49.0671 20.1657 48.7028 20.5278L27.1194 42.0139L15.4528 30.3473C15.0969 29.9631 14.6031 29.736 14.0798 29.7159C13.5565 29.6959 13.0467 29.8845 12.6625 30.2403C12.2783 30.5962 12.0512 31.09 12.0311 31.6133C12.0111 32.1366 12.1997 32.6464 12.5556 33.0306L27.1194 47.5556L51.4445 23.2889C51.6267 23.1082 51.7714 22.8931 51.8701 22.6562C51.9688 22.4192 52.0196 22.1651 52.0196 21.9084C52.0196 21.6517 51.9688 21.3975 51.8701 21.1606C51.7714 20.9237 51.6267 20.7086 51.4445 20.5278Z" fill="#5B956C"/>
</svg>
