<svg width="66" height="66" viewBox="0 0 66 66" fill="none" xmlns="http://www.w3.org/2000/svg"><path d="M32.813 0c3.03 0 5.935.387 8.715 1.162a34.12 34.12 0 0 1 7.862 3.281 30.347 30.347 0 0 1 6.63 5.127 35.767 35.767 0 0 1 5.127 6.665 30.88 30.88 0 0 1 3.316 7.828c.752 2.78 1.14 5.696 1.162 8.75 0 3.03-.387 5.935-1.162 8.715a34.117 34.117 0 0 1-3.281 7.862 30.345 30.345 0 0 1-5.127 6.63 35.767 35.767 0 0 1-6.665 5.127 30.88 30.88 0 0 1-7.828 3.316c-2.78.752-5.696 1.14-8.75 1.162-3.03 0-5.935-.387-8.715-1.162a34.117 34.117 0 0 1-7.862-3.281 30.346 30.346 0 0 1-6.63-5.127 35.763 35.763 0 0 1-5.127-6.665 30.877 30.877 0 0 1-3.316-7.828C.41 38.782.022 35.867 0 32.813c0-3.03.387-5.935 1.162-8.715a34.12 34.12 0 0 1 3.281-7.862 30.347 30.347 0 0 1 5.127-6.63 35.762 35.762 0 0 1 6.665-5.127 30.877 30.877 0 0 1 7.828-3.316C26.843.41 29.758.022 32.813 0zm0 61.25a27.5 27.5 0 0 0 7.519-1.025 29.466 29.466 0 0 0 6.802-2.872 28.068 28.068 0 0 0 5.776-4.443 28.483 28.483 0 0 0 4.444-5.742 28.65 28.65 0 0 0 2.87-6.802 27.847 27.847 0 0 0 1.026-7.553c0-2.598-.342-5.105-1.025-7.52a29.466 29.466 0 0 0-2.872-6.802 28.068 28.068 0 0 0-4.443-5.776 28.482 28.482 0 0 0-5.742-4.444 28.65 28.65 0 0 0-6.802-2.87 27.847 27.847 0 0 0-7.553-1.026c-2.62 0-5.139.342-7.554 1.025a28.8 28.8 0 0 0-6.768 2.871 29.345 29.345 0 0 0-5.776 4.444 26.928 26.928 0 0 0-4.444 5.742 30.656 30.656 0 0 0-2.87 6.802 26.173 26.173 0 0 0-1.026 7.553c0 2.598.342 5.105 1.025 7.52a29.467 29.467 0 0 0 2.871 6.802 28.067 28.067 0 0 0 4.444 5.776 28.483 28.483 0 0 0 5.742 4.444 28.65 28.65 0 0 0 6.802 2.87 27.847 27.847 0 0 0 7.553 1.026zM30.625 17.5H35v21.875h-4.375V17.5zm0 26.25H35v4.375h-4.375V43.75z" fill="#D9635A"/></svg>