<svg width="13" height="11" viewBox="0 0 13 11" fill="none" xmlns="http://www.w3.org/2000/svg">
<path d="M3.31875 1.125H1.44375M3.46875 1.125L4.81875 6.025C4.93143 6.4114 5.16546 6.75129 5.48624 6.99441C5.80702 7.23753 6.19752 7.37097 6.6 7.375H12.0625V1.125H3.46875ZM7.69375 9.5625C7.69375 10.0803 7.27402 10.5 6.75625 10.5C6.23848 10.5 5.81875 10.0803 5.81875 9.5625C5.81875 9.04473 6.23848 8.625 6.75625 8.625C7.27402 8.625 7.69375 9.04473 7.69375 9.5625ZM12.0687 9.5625C12.0687 10.0803 11.649 10.5 11.1312 10.5C10.6135 10.5 10.1937 10.0803 10.1937 9.5625C10.1937 9.04473 10.6135 8.625 11.1312 8.625C11.649 8.625 12.0687 9.04473 12.0687 9.5625Z" stroke="#0689E2" stroke-linecap="round" stroke-linejoin="round"/>
</svg>
