<svg width="25" height="24" viewBox="0 0 25 24" fill="none" xmlns="http://www.w3.org/2000/svg">
<path fill-rule="evenodd" clip-rule="evenodd" d="M12.0589 3C7.07771 3 3.04248 7.03098 3.04248 12C3.04248 16.969 7.07771 21 12.0589 21C17.04 21 21.0753 16.969 21.0753 12C21.0753 7.03098 17.04 3 12.0589 3ZM1.04248 12C1.04248 5.92332 5.97623 1 12.0589 1C18.1415 1 23.0753 5.92332 23.0753 12C23.0753 18.0767 18.1415 23 12.0589 23C5.97623 23 1.04248 18.0767 1.04248 12Z" fill="#D9635A"/>
<path fill-rule="evenodd" clip-rule="evenodd" d="M15.7715 8.29347C16.1617 8.68432 16.1612 9.31748 15.7703 9.70769L9.76048 15.7077C9.36964 16.0979 8.73647 16.0974 8.34627 15.7065C7.95607 15.3157 7.95658 14.6825 8.34743 14.2923L14.3573 8.29231C14.7481 7.90211 15.3813 7.90263 15.7715 8.29347Z" fill="#D9635A"/>
<path fill-rule="evenodd" clip-rule="evenodd" d="M8.34627 8.29347C8.73647 7.90263 9.36964 7.90211 9.76048 8.29231L15.7703 14.2923C16.1612 14.6825 16.1617 15.3157 15.7715 15.7065C15.3813 16.0974 14.7481 16.0979 14.3573 15.7077L8.34743 9.70769C7.95658 9.31748 7.95607 8.68432 8.34627 8.29347Z" fill="#D9635A"/>
</svg>
