<svg width="25" height="24" viewBox="0 0 25 24" fill="none" xmlns="http://www.w3.org/2000/svg"><path fill-rule="evenodd" clip-rule="evenodd" d="M12.059 3c-4.981 0-9.017 4.031-9.017 9s4.036 9 9.017 9 9.016-4.031 9.016-9-4.035-9-9.016-9zM1.042 12c0-6.077 4.934-11 11.017-11 6.083 0 11.016 4.923 11.016 11S18.142 23 12.06 23 1.042 18.077 1.042 12z" fill="#D9635A"/><path fill-rule="evenodd" clip-rule="evenodd" d="M15.771 8.293a1 1 0 0 1 0 1.415l-6.01 6a1 1 0 1 1-1.414-1.416l6.01-6a1 1 0 0 1 1.415.001z" fill="#D9635A"/><path fill-rule="evenodd" clip-rule="evenodd" d="M8.346 8.293a1 1 0 0 1 1.414 0l6.01 6a1 1 0 1 1-1.413 1.415l-6.01-6a1 1 0 0 1 0-1.415z" fill="#D9635A"/></svg>