<svg width="9" height="7" viewBox="0 0 9 7" fill="none" xmlns="http://www.w3.org/2000/svg">
<path d="M0.987847 6.91668H8.57821C8.65506 6.91644 8.73038 6.8955 8.79608 6.85611C8.86178 6.81671 8.91536 6.76036 8.95106 6.69312C8.98676 6.62587 9.00322 6.55028 8.99867 6.47448C8.99413 6.39868 8.96874 6.32554 8.92526 6.26293L5.13008 0.846263C4.97279 0.62168 4.59411 0.62168 4.4364 0.846263L0.64122 6.26293C0.597291 6.32541 0.57153 6.39858 0.566736 6.47451C0.561941 6.55044 0.578298 6.62621 0.614027 6.6936C0.649757 6.76099 0.703493 6.81741 0.769398 6.85674C0.835302 6.89607 0.910855 6.9168 0.987847 6.91668ZM4.78303 1.81543L7.77363 6.08335H1.79242L4.78303 1.81543Z" fill="#535353"/>
</svg>
