<svg width="9" height="7" viewBox="0 0 9 7" fill="none" xmlns="http://www.w3.org/2000/svg">
<path d="M0.987847 0.0833197H8.57821C8.65506 0.0835581 8.73038 0.104501 8.79608 0.143894C8.86178 0.183287 8.91536 0.239638 8.95106 0.306883C8.98676 0.374128 9.00322 0.44972 8.99867 0.525521C8.99413 0.601322 8.96874 0.674463 8.92526 0.73707L5.13008 6.15374C4.97279 6.37832 4.59411 6.37832 4.4364 6.15374L0.64122 0.73707C0.597291 0.674593 0.57153 0.601416 0.566736 0.525488C0.561941 0.449561 0.578298 0.373787 0.614027 0.3064C0.649757 0.239013 0.703493 0.182589 0.769398 0.14326C0.835302 0.10393 0.910855 0.0832 0.987847 0.0833197ZM4.78303 5.18457L7.77363 0.916653H1.79242L4.78303 5.18457Z" fill="#535353"/>
</svg>
