<svg width="20" height="22" viewBox="0 0 20 22" fill="none" xmlns="http://www.w3.org/2000/svg">
<path fill-rule="evenodd" clip-rule="evenodd" d="M7.29289 2.29295C7.48043 2.10542 7.73478 2.00006 8 2.00006H12C12.2652 2.00006 12.5196 2.10542 12.7071 2.29295C12.8946 2.48049 13 2.73484 13 3.00006V4.00006H7V3.00006C7 2.73484 7.10536 2.48049 7.29289 2.29295ZM5 4.00006V3.00006C5 2.20441 5.31607 1.44135 5.87868 0.878741C6.44129 0.316132 7.20435 6.10352e-05 8 6.10352e-05H12C12.7956 6.10352e-05 13.5587 0.316132 14.1213 0.878741C14.6839 1.44135 15 2.20441 15 3.00006V4.00006H17H19C19.5523 4.00006 20 4.44778 20 5.00006C20 5.55235 19.5523 6.00006 19 6.00006H18V19.0001C18 19.7957 17.6839 20.5588 17.1213 21.1214C16.5587 21.684 15.7957 22.0001 15 22.0001H5C4.20435 22.0001 3.44129 21.684 2.87868 21.1214C2.31607 20.5588 2 19.7957 2 19.0001V6.00006H1C0.447715 6.00006 0 5.55235 0 5.00006C0 4.44778 0.447715 4.00006 1 4.00006H3H5ZM4 6.00006V19.0001C4 19.2653 4.10536 19.5196 4.29289 19.7072C4.48043 19.8947 4.73478 20.0001 5 20.0001H15C15.2652 20.0001 15.5196 19.8947 15.7071 19.7072C15.8946 19.5196 16 19.2653 16 19.0001V6.00006H4Z" fill="#85B6FF"/>
</svg>
