<svg width="22" height="22" viewBox="0 0 22 22" fill="none" xmlns="http://www.w3.org/2000/svg">
<path fill-rule="evenodd" clip-rule="evenodd" d="M18 2.17157C17.7599 2.17157 17.5221 2.21886 17.3003 2.31075C17.0785 2.40264 16.8769 2.53732 16.7071 2.7071L3.39489 16.0193L2.42522 19.5748L5.98068 18.6051L19.2929 5.29289C19.4627 5.1231 19.5974 4.92154 19.6892 4.69971C19.7811 4.47787 19.8284 4.24011 19.8284 4C19.8284 3.75988 19.7811 3.52212 19.6892 3.30029C19.5974 3.07845 19.4627 2.87689 19.2929 2.7071C19.1231 2.53732 18.9215 2.40264 18.6997 2.31075C18.4779 2.21886 18.2401 2.17157 18 2.17157ZM16.5349 0.462991C16.9994 0.270595 17.4972 0.17157 18 0.17157C18.5028 0.17157 19.0006 0.270595 19.4651 0.462991C19.9296 0.655388 20.3516 0.937388 20.7071 1.29289C21.0626 1.64839 21.3446 2.07043 21.537 2.53492C21.7294 2.99941 21.8284 3.49724 21.8284 4C21.8284 4.50275 21.7294 5.00058 21.537 5.46507C21.3446 5.92956 21.0626 6.3516 20.7071 6.7071L7.20711 20.2071C7.08405 20.3302 6.93101 20.419 6.76312 20.4648L1.26312 21.9648C0.916906 22.0592 0.546644 21.9609 0.292893 21.7071C0.0391434 21.4534 -0.059185 21.0831 0.0352364 20.7369L1.53524 15.2369C1.58103 15.069 1.66984 14.9159 1.79289 14.7929L15.2929 1.29289C15.6484 0.937388 16.0704 0.655388 16.5349 0.462991Z" fill="#85B6FF"/>
</svg>
