<svg width="15" height="15" viewBox="0 0 15 15" fill="none" xmlns="http://www.w3.org/2000/svg">
<path d="M13.125 10.625V5H4.375V10.625H13.125ZM13.125 1.875C13.4565 1.875 13.7745 2.0067 14.0089 2.24112C14.2433 2.47554 14.375 2.79348 14.375 3.125V10.625C14.375 10.9565 14.2433 11.2745 14.0089 11.5089C13.7745 11.7433 13.4565 11.875 13.125 11.875H4.375C4.04348 11.875 3.72554 11.7433 3.49112 11.5089C3.2567 11.2745 3.125 10.9565 3.125 10.625V3.125C3.125 2.79348 3.2567 2.47554 3.49112 2.24112C3.72554 2.0067 4.04348 1.875 4.375 1.875H5V0.625H6.25V1.875H11.25V0.625H12.5V1.875H13.125ZM10.9563 6.9125L8.18125 9.6875L6.50625 8.0125L7.16875 7.35L8.18125 8.3625L10.2937 6.25L10.9563 6.9125ZM1.875 13.125H10.625V14.375H1.875C1.54348 14.375 1.22554 14.2433 0.991117 14.0089C0.756696 13.7745 0.625 13.4565 0.625 13.125V5.625H1.875V13.125Z" fill="#85B6FF"/>
</svg>
