<svg width="16" height="14" viewBox="0 0 16 14" fill="none" xmlns="http://www.w3.org/2000/svg">
<path fill-rule="evenodd" clip-rule="evenodd" d="M0.723577 0.686442C0.846017 0.420464 1.11205 0.250061 1.40486 0.250061H14.9009C15.1937 0.250061 15.4598 0.420464 15.5822 0.686442C15.7047 0.95242 15.6611 1.26533 15.4707 1.48778L10.2525 7.58389V13.0001C10.2525 13.2593 10.1186 13.5002 9.89834 13.6371C9.67811 13.7739 9.40281 13.7873 9.17034 13.6725L6.47113 12.3392C6.21525 12.2128 6.05329 11.9521 6.05329 11.6667V7.58389L0.835089 1.48778C0.644681 1.26533 0.601137 0.95242 0.723577 0.686442ZM3.03409 1.75006L7.37306 6.81901C7.48937 6.95489 7.55329 7.12787 7.55329 7.30673V11.2007L8.7525 11.7931V7.30673C8.7525 7.12787 8.81643 6.95489 8.93274 6.81901L13.2717 1.75006H3.03409Z" fill="#383838"/>
</svg>
