<svg width="13" height="15" viewBox="0 0 13 15" fill="none" xmlns="http://www.w3.org/2000/svg">
<path d="M6.5 14.375C3.02688 13.6031 0.25 10.3263 0.25 6.875V3.125L6.5 0.625L12.75 3.125V6.875C12.75 10.3275 9.97313 13.6031 6.5 14.375ZM1.5 3.75V6.875C1.53572 8.32008 2.04398 9.71365 2.94699 10.8424C3.85 11.9712 5.09801 12.7729 6.5 13.125C7.90199 12.7729 9.15 11.9712 10.053 10.8424C10.956 9.71365 11.4643 8.32008 11.5 6.875V3.75L6.5 1.875L1.5 3.75Z" fill="#85B6FF"/>
<path d="M6.5 6.875C7.36294 6.875 8.0625 6.17544 8.0625 5.3125C8.0625 4.44956 7.36294 3.75 6.5 3.75C5.63706 3.75 4.9375 4.44956 4.9375 5.3125C4.9375 6.17544 5.63706 6.875 6.5 6.875Z" fill="#85B6FF"/>
<path d="M3.375 9.375C3.68306 9.93638 4.13475 10.4058 4.68384 10.7353C5.23293 11.0647 5.8597 11.2424 6.5 11.25C7.1403 11.2424 7.76707 11.0647 8.31616 10.7353C8.86525 10.4058 9.31694 9.93638 9.625 9.375C9.60938 8.19 7.53625 7.5 6.5 7.5C5.45812 7.5 3.39062 8.19 3.375 9.375Z" fill="#85B6FF"/>
</svg>
