<svg width="13" height="15" viewBox="0 0 13 15" fill="none" xmlns="http://www.w3.org/2000/svg"><path d="M6.5 14.375c-3.473-.772-6.25-4.049-6.25-7.5v-3.75L6.5.625l6.25 2.5v3.75c0 3.453-2.777 6.728-6.25 7.5zM1.5 3.75v3.125a6.612 6.612 0 0 0 5 6.25 6.612 6.612 0 0 0 5-6.25V3.75l-5-1.875-5 1.875z" fill="#85B6FF"/><path d="M6.5 6.875a1.563 1.563 0 1 0 0-3.125 1.563 1.563 0 0 0 0 3.125zm-3.125 2.5A3.614 3.614 0 0 0 6.5 11.25a3.614 3.614 0 0 0 3.125-1.875C9.609 8.19 7.536 7.5 6.5 7.5c-1.042 0-3.11.69-3.125 1.875z" fill="#85B6FF"/></svg>