<svg width="13" height="13" viewBox="0 0 13 13" fill="none" xmlns="http://www.w3.org/2000/svg">
<path d="M6.5 12.125C5.0625 12.125 3.81 11.6485 2.7425 10.6956C1.675 9.74271 1.06292 8.5525 0.90625 7.125H2.1875C2.33333 8.20833 2.81521 9.10417 3.63313 9.8125C4.45104 10.5208 5.40667 10.875 6.5 10.875C7.71875 10.875 8.75271 10.4506 9.60187 9.60187C10.451 8.75312 10.8754 7.71917 10.875 6.5C10.875 5.28125 10.4506 4.2475 9.60187 3.39875C8.75312 2.55 7.71917 2.12542 6.5 2.125C5.78125 2.125 5.10938 2.29167 4.48437 2.625C3.85937 2.95833 3.33333 3.41667 2.90625 4H4.625V5.25H0.875V1.5H2.125V2.96875C2.65625 2.30208 3.30479 1.78646 4.07062 1.42188C4.83646 1.05729 5.64625 0.875 6.5 0.875C7.28125 0.875 8.01312 1.02354 8.69562 1.32063C9.37812 1.61771 9.97188 2.01854 10.4769 2.52313C10.9819 3.02854 11.3829 3.62229 11.68 4.30438C11.9771 4.98646 12.1254 5.71833 12.125 6.5C12.125 7.28125 11.9767 8.01312 11.68 8.69562C11.3833 9.37812 10.9823 9.97188 10.4769 10.4769C9.97146 10.9819 9.37771 11.3829 8.69562 11.68C8.01354 11.9771 7.28167 12.1254 6.5 12.125ZM8.25 9.125L5.875 6.75V3.375H7.125V6.25L9.125 8.25L8.25 9.125Z" fill="#85B6FF"/>
</svg>
