<svg width="13" height="13" viewBox="0 0 13 13" fill="none" xmlns="http://www.w3.org/2000/svg"><path d="M6.5 12.125c-1.438 0-2.69-.476-3.757-1.43-1.068-.952-1.68-2.143-1.837-3.57h1.281a4.178 4.178 0 0 0 1.446 2.688A4.243 4.243 0 0 0 6.5 10.874c1.219 0 2.253-.424 3.102-1.273.849-.849 1.273-1.883 1.273-3.102 0-1.219-.424-2.253-1.273-3.101C8.753 2.55 7.719 2.125 6.5 2.125c-.719 0-1.39.167-2.016.5A4.645 4.645 0 0 0 2.906 4h1.719v1.25H.875V1.5h1.25v1.469A5.582 5.582 0 0 1 6.5.875a5.44 5.44 0 0 1 2.196.446 5.725 5.725 0 0 1 1.78 1.202 5.73 5.73 0 0 1 1.204 1.781 5.43 5.43 0 0 1 .445 2.196c0 .781-.148 1.513-.445 2.196a5.707 5.707 0 0 1-1.203 1.78 5.73 5.73 0 0 1-1.781 1.204 5.43 5.43 0 0 1-2.196.445zm1.75-3L5.875 6.75V3.375h1.25V6.25l2 2-.875.875z" fill="#85B6FF"/></svg>