<svg width="15" height="13" viewBox="0 0 15 13" fill="none" xmlns="http://www.w3.org/2000/svg">
<path fill-rule="evenodd" clip-rule="evenodd" d="M12.5 1.5H2.5C2.33424 1.5 2.17527 1.56585 2.05806 1.68306C1.94085 1.80027 1.875 1.95924 1.875 2.125V10.875C1.875 11.0408 1.94085 11.1997 2.05806 11.3169C2.17527 11.4342 2.33424 11.5 2.5 11.5H12.5C12.6658 11.5 12.8247 11.4342 12.9419 11.3169C13.0592 11.1997 13.125 11.0408 13.125 10.875V2.125C13.125 1.95924 13.0592 1.80027 12.9419 1.68306C12.8247 1.56585 12.6658 1.5 12.5 1.5ZM2.5 0.25C2.00272 0.25 1.52581 0.447544 1.17417 0.799175C0.822544 1.15081 0.625 1.62772 0.625 2.125V10.875C0.625 11.3723 0.822544 11.8492 1.17417 12.2008C1.52581 12.5525 2.00272 12.75 2.5 12.75H12.5C12.9973 12.75 13.4742 12.5525 13.8258 12.2008C14.1775 11.8492 14.375 11.3723 14.375 10.875V2.125C14.375 1.62772 14.1775 1.15081 13.8258 0.799175C13.4742 0.447544 12.9973 0.25 12.5 0.25H2.5ZM3.75 3.375H5V4.625H3.75V3.375ZM6.875 3.375C6.70924 3.375 6.55027 3.44085 6.43306 3.55806C6.31585 3.67527 6.25 3.83424 6.25 4C6.25 4.16576 6.31585 4.32473 6.43306 4.44194C6.55027 4.55915 6.70924 4.625 6.875 4.625H10.625C10.7908 4.625 10.9497 4.55915 11.0669 4.44194C11.1842 4.32473 11.25 4.16576 11.25 4C11.25 3.83424 11.1842 3.67527 11.0669 3.55806C10.9497 3.44085 10.7908 3.375 10.625 3.375H6.875ZM5 5.875H3.75V7.125H5V5.875ZM6.25 6.5C6.25 6.33424 6.31585 6.17527 6.43306 6.05806C6.55027 5.94085 6.70924 5.875 6.875 5.875H10.625C10.7908 5.875 10.9497 5.94085 11.0669 6.05806C11.1842 6.17527 11.25 6.33424 11.25 6.5C11.25 6.66576 11.1842 6.82473 11.0669 6.94194C10.9497 7.05915 10.7908 7.125 10.625 7.125H6.875C6.70924 7.125 6.55027 7.05915 6.43306 6.94194C6.31585 6.82473 6.25 6.66576 6.25 6.5ZM5 8.375H3.75V9.625H5V8.375ZM6.25 9C6.25 8.83424 6.31585 8.67527 6.43306 8.55806C6.55027 8.44085 6.70924 8.375 6.875 8.375H10.625C10.7908 8.375 10.9497 8.44085 11.0669 8.55806C11.1842 8.67527 11.25 8.83424 11.25 9C11.25 9.16576 11.1842 9.32473 11.0669 9.44194C10.9497 9.55915 10.7908 9.625 10.625 9.625H6.875C6.70924 9.625 6.55027 9.55915 6.43306 9.44194C6.31585 9.32473 6.25 9.16576 6.25 9Z" fill="#0689E2"/>
</svg>
