<svg width="15" height="13" viewBox="0 0 15 13" fill="none" xmlns="http://www.w3.org/2000/svg"><path fill-rule="evenodd" clip-rule="evenodd" d="M12.5 1.5h-10a.625.625 0 0 0-.625.625v8.75a.625.625 0 0 0 .625.625h10a.624.624 0 0 0 .625-.625v-8.75A.625.625 0 0 0 12.5 1.5zM2.5.25A1.875 1.875 0 0 0 .625 2.125v8.75A1.875 1.875 0 0 0 2.5 12.75h10a1.875 1.875 0 0 0 1.875-1.875v-8.75A1.875 1.875 0 0 0 12.5.25h-10zm1.25 3.125H5v1.25H3.75v-1.25zm3.125 0a.625.625 0 0 0 0 1.25h3.75a.625.625 0 1 0 0-1.25h-3.75zM5 5.875H3.75v1.25H5v-1.25zm1.25.625a.625.625 0 0 1 .625-.625h3.75a.625.625 0 1 1 0 1.25h-3.75A.625.625 0 0 1 6.25 6.5zM5 8.375H3.75v1.25H5v-1.25zM6.25 9a.625.625 0 0 1 .625-.625h3.75a.625.625 0 1 1 0 1.25h-3.75A.625.625 0 0 1 6.25 9z" fill="#0689E2"/></svg>