<svg width="15" height="11" viewBox="0 0 15 11" fill="none" xmlns="http://www.w3.org/2000/svg"><path d="M6.87 7.253a3.516 3.516 0 1 0-3.896 0 5.615 5.615 0 0 0-2.767 2.21.469.469 0 1 0 .785.512 4.688 4.688 0 0 1 7.86 0 .469.469 0 0 0 .785-.512 5.615 5.615 0 0 0-2.767-2.21zM2.344 4.328a2.578 2.578 0 1 1 5.156 0 2.578 2.578 0 0 1-5.156 0zm12.313 5.783a.469.469 0 0 1-.649-.136 4.678 4.678 0 0 0-3.93-2.131.469.469 0 1 1 0-.938 2.578 2.578 0 1 0-.957-4.973.469.469 0 1 1-.348-.87 3.516 3.516 0 0 1 3.253 6.19 5.615 5.615 0 0 1 2.767 2.21.469.469 0 0 1-.136.648z" fill="#85B6FF"/></svg>