<svg width="15" height="11" viewBox="0 0 15 11" fill="none" xmlns="http://www.w3.org/2000/svg">
<path d="M6.87007 7.25312C7.49831 6.83487 7.97528 6.22555 8.23044 5.51526C8.4856 4.80497 8.50541 4.03142 8.28693 3.309C8.06845 2.58658 7.62329 1.95365 7.01727 1.5038C6.41126 1.05395 5.67656 0.811066 4.92183 0.811066C4.1671 0.811066 3.4324 1.05395 2.82638 1.5038C2.22036 1.95365 1.7752 2.58658 1.55672 3.309C1.33825 4.03142 1.35805 4.80497 1.61321 5.51526C1.86837 6.22555 2.34534 6.83487 2.97359 7.25312C1.83716 7.67197 0.866616 8.44704 0.206789 9.46269C0.17211 9.51423 0.148023 9.57215 0.135926 9.63308C0.123829 9.69402 0.123965 9.75674 0.136325 9.81762C0.148684 9.8785 0.173022 9.93632 0.207922 9.98771C0.242823 10.0391 0.28759 10.083 0.339622 10.117C0.391654 10.1509 0.449913 10.1742 0.511012 10.1854C0.572111 10.1966 0.634832 10.1956 0.695529 10.1824C0.756225 10.1691 0.813686 10.144 0.864573 10.1083C0.915459 10.0727 0.958756 10.0273 0.991945 9.9748C1.41756 9.32018 1.99997 8.78225 2.68626 8.40986C3.37256 8.03748 4.14101 7.84243 4.92183 7.84243C5.70265 7.84243 6.4711 8.03748 7.15739 8.40986C7.84369 8.78225 8.42609 9.32018 8.85171 9.9748C8.92046 10.077 9.02667 10.148 9.14736 10.1725C9.26806 10.197 9.39355 10.173 9.49671 10.1057C9.59986 10.0385 9.67239 9.93329 9.69862 9.81295C9.72485 9.69262 9.70267 9.5668 9.63687 9.46269C8.97704 8.44704 8.0065 7.67197 6.87007 7.25312ZM2.3437 4.32812C2.3437 3.81821 2.49491 3.31976 2.7782 2.89579C3.06148 2.47182 3.46413 2.14137 3.93522 1.94624C4.40631 1.75111 4.92469 1.70005 5.4248 1.79953C5.9249 1.89901 6.38428 2.14455 6.74484 2.50511C7.10539 2.86566 7.35094 3.32504 7.45041 3.82515C7.54989 4.32526 7.49884 4.84363 7.3037 5.31472C7.10857 5.78581 6.77813 6.18846 6.35416 6.47175C5.93019 6.75504 5.43173 6.90624 4.92183 6.90624C4.2383 6.90547 3.583 6.6336 3.09967 6.15027C2.61635 5.66695 2.34448 5.01164 2.3437 4.32812ZM14.6566 10.1113C14.5525 10.1792 14.4256 10.203 14.304 10.1774C14.1824 10.1518 14.0759 10.0789 14.008 9.9748C13.5829 9.31979 13.0005 8.78163 12.3141 8.40939C11.6277 8.03716 10.8589 7.8427 10.0781 7.84374C9.95376 7.84374 9.83453 7.79436 9.74662 7.70645C9.65871 7.61854 9.60933 7.49931 9.60933 7.37499C9.60933 7.25067 9.65871 7.13144 9.74662 7.04354C9.83453 6.95563 9.95376 6.90624 10.0781 6.90624C10.4577 6.90589 10.8327 6.82168 11.176 6.65963C11.5194 6.49759 11.8227 6.26171 12.0643 5.96885C12.3059 5.67598 12.4799 5.33337 12.5737 4.96549C12.6676 4.5976 12.6791 4.21353 12.6073 3.8407C12.5355 3.46788 12.3823 3.11551 12.1585 2.80878C11.9348 2.50204 11.646 2.24851 11.3129 2.0663C10.9799 1.88409 10.6106 1.77769 10.2317 1.75472C9.85269 1.73174 9.47332 1.79275 9.12066 1.93339C9.06316 1.95825 9.00126 1.97133 8.93862 1.97186C8.87598 1.97239 8.81386 1.96035 8.75595 1.93647C8.69804 1.91259 8.6455 1.87734 8.60144 1.83281C8.55738 1.78828 8.5227 1.73538 8.49943 1.67721C8.47617 1.61905 8.4648 1.55681 8.46599 1.49418C8.46719 1.43155 8.48092 1.36979 8.50639 1.31256C8.53185 1.25533 8.56853 1.20378 8.61426 1.16096C8.65998 1.11815 8.71383 1.08493 8.77261 1.06327C9.57972 0.741389 10.4774 0.729806 11.2926 1.03076C12.1077 1.33171 12.7825 1.92387 13.1868 2.69301C13.5911 3.46215 13.6963 4.35376 13.482 5.19584C13.2677 6.03793 12.7491 6.77081 12.0263 7.25312C13.1628 7.67197 14.1333 8.44704 14.7931 9.46269C14.861 9.56681 14.8848 9.69364 14.8592 9.81528C14.8336 9.93692 14.7607 10.0434 14.6566 10.1113Z" fill="#85B6FF"/>
</svg>
