<svg width="16" height="16" viewBox="0 0 16 16" fill="none" xmlns="http://www.w3.org/2000/svg">
<path fill-rule="evenodd" clip-rule="evenodd" d="M8.00002 2.00001C4.68631 2.00001 2.00002 4.6863 2.00002 8C2.00002 11.3137 4.68631 14 8.00002 14C11.3137 14 14 11.3137 14 8C14 4.6863 11.3137 2.00001 8.00002 2.00001ZM0.666687 8C0.666687 3.94992 3.94993 0.666672 8.00002 0.666672C12.0501 0.666672 15.3334 3.94992 15.3334 8C15.3334 12.0501 12.0501 15.3333 8.00002 15.3333C3.94993 15.3333 0.666687 12.0501 0.666687 8Z" fill="white"/>
<path fill-rule="evenodd" clip-rule="evenodd" d="M8.00002 4.66667C8.36821 4.66667 8.66669 4.96515 8.66669 5.33334V10.6667C8.66669 11.0349 8.36821 11.3333 8.00002 11.3333C7.63183 11.3333 7.33335 11.0349 7.33335 10.6667V5.33334C7.33335 4.96515 7.63183 4.66667 8.00002 4.66667Z" fill="white"/>
<path fill-rule="evenodd" clip-rule="evenodd" d="M4.66669 8.00001C4.66669 7.63182 4.96516 7.33334 5.33335 7.33334H10.6667C11.0349 7.33334 11.3334 7.63182 11.3334 8.00001C11.3334 8.3682 11.0349 8.66667 10.6667 8.66667H5.33335C4.96516 8.66667 4.66669 8.3682 4.66669 8.00001Z" fill="white"/>
</svg>
