<svg width="16" height="16" viewBox="0 0 16 16" fill="none" xmlns="http://www.w3.org/2000/svg"><path fill-rule="evenodd" clip-rule="evenodd" d="M8 2a6 6 0 1 0 0 12A6 6 0 0 0 8 2zM.667 8a7.333 7.333 0 1 1 14.666 0A7.333 7.333 0 0 1 .667 8z" fill="#fff"/><path fill-rule="evenodd" clip-rule="evenodd" d="M8 4.667c.368 0 .667.298.667.666v5.334a.667.667 0 0 1-1.334 0V5.333c0-.368.299-.666.667-.666z" fill="#fff"/><path fill-rule="evenodd" clip-rule="evenodd" d="M4.667 8c0-.368.298-.667.666-.667h5.334a.667.667 0 1 1 0 1.334H5.333A.667.667 0 0 1 4.667 8z" fill="#fff"/></svg>