<svg width="15" height="15" viewBox="0 0 15 15" fill="none" xmlns="http://www.w3.org/2000/svg">
<path d="M4.01028 3.8886V3.50085C4.01028 1.57433 5.56437 0 7.5 0C9.43563 0 10.9897 1.57433 10.9897 3.50085V3.88971H13.372C13.5161 3.88985 13.655 3.94106 13.7618 4.03343C13.8687 4.1258 13.9358 4.25275 13.9502 4.38968L14.9971 14.3889C15.0052 14.4661 14.9963 14.5441 14.971 14.6178C14.9456 14.6915 14.9044 14.7594 14.8499 14.8169C14.7954 14.8745 14.729 14.9205 14.6547 14.9521C14.5805 14.9836 14.5002 14.9999 14.419 15H0.581046C0.49981 14.9999 0.419491 14.9836 0.345265 14.9521C0.271039 14.9205 0.204552 14.8745 0.150087 14.8169C0.0956215 14.7594 0.0543866 14.6915 0.0290387 14.6178C0.00369071 14.5441 -0.00520819 14.4661 0.00291548 14.3889L1.04983 4.38968C1.06424 4.25275 1.13135 4.1258 1.23816 4.03343C1.34497 3.94106 1.48388 3.88985 1.62796 3.88971H4.01028V3.8886ZM5.17352 3.8886H9.82648V3.50085C9.82648 2.17428 8.77724 1.11103 7.5 1.11103C6.22276 1.11103 5.17352 2.17428 5.17352 3.50085V3.88971V3.8886ZM4.01028 4.99963H2.15491L1.22432 13.8879H13.7757L12.8439 4.99963H10.9897V6.66617C10.9897 6.8135 10.9284 6.9548 10.8194 7.05898C10.7103 7.16316 10.5624 7.22169 10.4081 7.22169C10.2538 7.22169 10.1059 7.16316 9.99683 7.05898C9.88776 6.9548 9.82648 6.8135 9.82648 6.66617V4.99963H5.17352V6.66617C5.17352 6.8135 5.11224 6.9548 5.00317 7.05898C4.89409 7.16316 4.74615 7.22169 4.5919 7.22169C4.43764 7.22169 4.28971 7.16316 4.18063 7.05898C4.07156 6.9548 4.01028 6.8135 4.01028 6.66617V4.99963Z" fill="#85B6FF"/>
</svg>
