<svg width="15" height="15" viewBox="0 0 15 15" fill="none" xmlns="http://www.w3.org/2000/svg"><path d="M4.01 3.889V3.5C4.01 1.574 5.564 0 7.5 0a3.494 3.494 0 0 1 3.49 3.5v.39h2.382c.144 0 .283.051.39.143.107.093.174.22.188.357l1.047 9.999a.533.533 0 0 1-.147.428.582.582 0 0 1-.431.183H.581a.606.606 0 0 1-.43-.183.55.55 0 0 1-.148-.428l1.047-10a.547.547 0 0 1 .188-.356.597.597 0 0 1 .39-.143H4.01v-.001zm1.164 0h4.652V3.5c0-1.327-1.049-2.39-2.326-2.39-1.277 0-2.326 1.063-2.326 2.39v.389-.001zM4.01 4.999H2.155l-.93 8.889h12.55L12.845 5H10.99v1.666a.543.543 0 0 1-.17.393.596.596 0 0 1-.412.163.596.596 0 0 1-.411-.163.543.543 0 0 1-.17-.393V5H5.173v1.666a.543.543 0 0 1-.17.393.596.596 0 0 1-.412.163.596.596 0 0 1-.411-.163.543.543 0 0 1-.17-.393V5z" fill="#85B6FF"/></svg>