<svg width="16" height="22" viewBox="0 0 16 22" fill="none" xmlns="http://www.w3.org/2000/svg">
<path fill-rule="evenodd" clip-rule="evenodd" d="M6 2.00006C5.73478 2.00006 5.48043 2.10542 5.29289 2.29295C5.10536 2.48049 5 2.73484 5 3.00006V4.00006H11V3.00006C11 2.73484 10.8946 2.48049 10.7071 2.29295C10.5196 2.10542 10.2652 2.00006 10 2.00006H6ZM13 4.00006V3.00006C13 2.20441 12.6839 1.44135 12.1213 0.878741C11.5587 0.316132 10.7956 6.10352e-05 10 6.10352e-05H6C5.20435 6.10352e-05 4.44129 0.316132 3.87868 0.878741C3.31607 1.44135 3 2.20441 3 3.00006V4.00006H1C0.447715 4.00006 0 4.44778 0 5.00006V19.0001C0 19.7957 0.31607 20.5588 0.87868 21.1214C1.44129 21.684 2.20435 22.0001 3 22.0001H13C13.7957 22.0001 14.5587 21.684 15.1213 21.1214C15.6839 20.5588 16 19.7957 16 19.0001V5.00006C16 4.44778 15.5523 4.00006 15 4.00006H13ZM2 6.00006V19.0001C2 19.2653 2.10536 19.5196 2.29289 19.7072C2.48043 19.8947 2.73478 20.0001 3 20.0001H13C13.2652 20.0001 13.5196 19.8947 13.7071 19.7072C13.8946 19.5196 14 19.2653 14 19.0001V6.00006H2Z" fill="#85B6FF"/>
</svg>
