<svg width="22" height="22" viewBox="0 0 22 22" fill="none" xmlns="http://www.w3.org/2000/svg"><path d="M20.356 21.192l-7.827-7.827a6.869 6.869 0 0 1-2.156 1.236 7.206 7.206 0 0 1-2.45.438c-2.002 0-3.696-.693-5.083-2.079C1.453 11.573.76 9.88.76 7.879c0-2.001.693-3.696 2.078-5.084C4.223 1.405 5.917.711 7.918.711s3.696.694 5.084 2.08c1.389 1.387 2.083 3.081 2.083 5.084 0 .868-.154 1.709-.461 2.521-.309.813-.713 1.508-1.213 2.085l7.828 7.827-.883.884zM7.923 13.787c1.658 0 3.058-.57 4.2-1.712 1.142-1.142 1.713-2.542 1.713-4.201 0-1.659-.57-3.059-1.712-4.2-1.142-1.142-2.542-1.713-4.2-1.713-1.659 0-3.059.571-4.201 1.713C2.58 4.815 2.01 6.215 2.01 7.874c0 1.658.57 3.058 1.713 4.2 1.141 1.141 2.541 1.713 4.2 1.713z" fill="#85B6FF"/></svg>