<svg width="22" height="22" viewBox="0 0 22 22" fill="none" xmlns="http://www.w3.org/2000/svg">
<path d="M20.3563 21.1925L12.5288 13.365C11.9038 13.8975 11.185 14.3096 10.3725 14.6012C9.56001 14.8929 8.74334 15.0387 7.92251 15.0387C5.92084 15.0387 4.22668 14.3458 2.84001 12.96C1.45334 11.5733 0.76001 9.87958 0.76001 7.87874C0.76001 5.87791 1.45251 4.18333 2.83751 2.79499C4.22334 1.40583 5.91668 0.711243 7.91751 0.711243C9.91918 0.711243 11.6142 1.40458 13.0025 2.79124C14.3908 4.17791 15.085 5.87249 15.085 7.87499C15.085 8.74333 14.9313 9.58374 14.6238 10.3962C14.3154 11.2087 13.9113 11.9037 13.4113 12.4812L21.2388 20.3075L20.3563 21.1925ZM7.92251 13.7875C9.58084 13.7875 10.9813 13.2167 12.1238 12.075C13.2654 10.9333 13.8363 9.53291 13.8363 7.87374C13.8363 6.21541 13.2654 4.81541 12.1238 3.67374C10.9821 2.53208 9.58209 1.96124 7.92376 1.96124C6.26543 1.96124 4.86501 2.53208 3.72251 3.67374C2.58084 4.81541 2.01001 6.21541 2.01001 7.87374C2.01001 9.53208 2.58084 10.9321 3.72251 12.0737C4.86418 13.2154 6.26418 13.7875 7.92251 13.7875Z" fill="#85B6FF"/>
</svg>
