<svg width="17" height="16" viewBox="0 0 17 16" fill="none" xmlns="http://www.w3.org/2000/svg">
<path fill-rule="evenodd" clip-rule="evenodd" d="M9.3769 14.0489C8.98843 14.428 8.36845 14.428 7.97999 14.0489L4.56456 10.7155C4.16931 10.3298 4.16161 9.69668 4.54736 9.30143C4.9331 8.90619 5.56622 8.89849 5.96147 9.28423L8.67844 11.9359L11.3954 9.28423C11.7907 8.89849 12.4238 8.90619 12.8095 9.30143C13.1953 9.69668 13.1876 10.3298 12.7923 10.7155L9.3769 14.0489Z" fill="#383838"/>
<path fill-rule="evenodd" clip-rule="evenodd" d="M7.97992 1.95088C8.36838 1.57175 8.98836 1.57175 9.37682 1.95088L12.7923 5.28421C13.1875 5.66996 13.1952 6.30308 12.8095 6.69832C12.4237 7.09357 11.7906 7.10127 11.3953 6.71552L8.67837 4.06385L5.96139 6.71552C5.56615 7.10127 4.93303 7.09357 4.54728 6.69832C4.16154 6.30308 4.16924 5.66996 4.56449 5.28421L7.97992 1.95088Z" fill="#383838"/>
</svg>
