<svg width="15" height="11" viewBox="0 0 15 11" fill="none" xmlns="http://www.w3.org/2000/svg"><path d="M11.875 5.5a.625.625 0 1 1-1.25 0 .625.625 0 0 1 1.25 0z" fill="#000"/><path fill-rule="evenodd" clip-rule="evenodd" d="M6.215.031H8.16c1.149 0 2.059 0 2.77.096.733.099 1.326.306 1.794.774.578.578.762 1.351.83 2.356a1.086 1.086 0 0 1 .665 1.035v2.416c0 .038 0 .078-.003.116a1.09 1.09 0 0 1-.663.92c-.067 1.004-.251 1.777-.829 2.355-.468.468-1.06.675-1.793.774-.713.096-1.622.096-2.771.096H6.215c-1.149 0-2.059 0-2.77-.096-.733-.099-1.326-.306-1.794-.774-.468-.468-.675-1.06-.774-1.793C.78 7.593.78 6.684.78 5.535v-.07c0-1.149 0-2.059.096-2.77.099-.733.306-1.326.774-1.794C2.119.433 2.71.226 3.444.127 4.157.03 5.066.03 6.215.03zm6.39 7.813h-1.211c-1.34 0-2.488-1.018-2.488-2.344 0-1.326 1.147-2.344 2.487-2.344h1.211c-.07-.838-.231-1.281-.543-1.592-.265-.265-.627-.423-1.256-.508C10.163.97 9.316.97 8.125.97H6.248c-1.191 0-2.038.001-2.68.087-.629.085-.991.243-1.256.508-.264.264-.423.627-.507 1.255-.087.643-.088 1.49-.088 2.681 0 1.192.001 2.039.088 2.681.084.628.243.99.507 1.255.264.265.627.423 1.256.508.642.086 1.489.087 2.68.087h1.875c1.192 0 2.04-.001 2.682-.087.628-.085.99-.243 1.255-.508.312-.311.473-.754.544-1.592zM3.281 3a.469.469 0 0 1 .469-.469h2.5a.469.469 0 0 1 0 .938h-2.5A.469.469 0 0 1 3.281 3zm9.796 1.094h-1.683c-.89 0-1.55.662-1.55 1.406 0 .744.66 1.406 1.55 1.406h1.698c.129-.008.184-.095.189-.147V4.24c-.005-.052-.06-.14-.19-.147h-.013z" fill="#85B6FF"/></svg>