<svg width="15" height="11" viewBox="0 0 15 11" fill="none" xmlns="http://www.w3.org/2000/svg">
<path d="M11.875 5.5C11.875 5.66576 11.8092 5.82473 11.6919 5.94194C11.5747 6.05915 11.4158 6.125 11.25 6.125C11.0842 6.125 10.9253 6.05915 10.8081 5.94194C10.6908 5.82473 10.625 5.66576 10.625 5.5C10.625 5.33424 10.6908 5.17527 10.8081 5.05806C10.9253 4.94085 11.0842 4.875 11.25 4.875C11.4158 4.875 11.5747 4.94085 11.6919 5.05806C11.8092 5.17527 11.875 5.33424 11.875 5.5Z" fill="black"/>
<path fill-rule="evenodd" clip-rule="evenodd" d="M6.215 0.03125H8.16C9.30875 0.03125 10.2188 0.0312501 10.9306 0.126875C11.6631 0.225625 12.2563 0.433125 12.7244 0.900625C13.3019 1.47875 13.4863 2.2525 13.5531 3.25688C13.9138 3.415 14.1863 3.75062 14.2156 4.17562C14.2188 4.21375 14.2188 4.25438 14.2188 4.29188V6.70812C14.2188 6.74562 14.2188 6.78625 14.2163 6.82375C14.1863 7.24875 13.9138 7.585 13.5531 7.74375C13.4863 8.7475 13.3019 9.52125 12.7244 10.0994C12.2563 10.5669 11.6631 10.7744 10.9306 10.8731C10.2181 10.9688 9.30875 10.9688 8.16 10.9688H6.215C5.06625 10.9688 4.15625 10.9688 3.44438 10.8731C2.71188 10.7744 2.11875 10.5669 1.65063 10.0994C1.18313 9.63125 0.975625 9.03813 0.876875 8.30562C0.78125 7.59313 0.78125 6.68375 0.78125 5.535V5.465C0.78125 4.31625 0.78125 3.40625 0.876875 2.69438C0.975625 1.96188 1.18313 1.36875 1.65063 0.900625C2.11875 0.433125 2.71188 0.225625 3.44438 0.126875C4.15688 0.0312501 5.06625 0.03125 6.215 0.03125ZM12.605 7.84375H11.3938C10.0531 7.84375 8.90563 6.82625 8.90563 5.5C8.90563 4.17375 10.0531 3.15625 11.3931 3.15625H12.6044C12.5331 2.31813 12.3725 1.875 12.0606 1.56375C11.7963 1.29938 11.4338 1.14062 10.805 1.05625C10.1631 0.97 9.31625 0.96875 8.12438 0.96875H6.24938C5.0575 0.96875 4.21125 0.97 3.56813 1.05625C2.94 1.14062 2.5775 1.29938 2.31313 1.56375C2.04875 1.82813 1.89 2.19062 1.80563 2.81938C1.71938 3.46187 1.71813 4.30813 1.71813 5.5C1.71813 6.69187 1.71938 7.53875 1.80563 8.18125C1.89 8.80938 2.04875 9.17188 2.31313 9.43625C2.5775 9.70063 2.94 9.85938 3.56875 9.94375C4.21125 10.03 5.0575 10.0312 6.24938 10.0312H8.12438C9.31625 10.0312 10.1631 10.03 10.8056 9.94375C11.4338 9.85938 11.7963 9.70063 12.0606 9.43625C12.3725 9.125 12.5338 8.6825 12.605 7.84375ZM3.28125 3C3.28125 2.87568 3.33064 2.75645 3.41854 2.66854C3.50645 2.58064 3.62568 2.53125 3.75 2.53125H6.25C6.37432 2.53125 6.49355 2.58064 6.58146 2.66854C6.66936 2.75645 6.71875 2.87568 6.71875 3C6.71875 3.12432 6.66936 3.24355 6.58146 3.33146C6.49355 3.41936 6.37432 3.46875 6.25 3.46875H3.75C3.62568 3.46875 3.50645 3.41936 3.41854 3.33146C3.33064 3.24355 3.28125 3.12432 3.28125 3ZM13.0775 4.09375H11.3938C10.5038 4.09375 9.84313 4.75562 9.84313 5.5C9.84313 6.24438 10.5038 6.90625 11.3931 6.90625H13.0919C13.2206 6.89813 13.2763 6.81125 13.2806 6.75875V4.24125C13.2763 4.18875 13.2206 4.10188 13.0919 4.09438L13.0775 4.09375Z" fill="#85B6FF"/>
</svg>
